{"glyphs":{"0":{"ha":1018,"x_min":28,"x_max":990,"o":"m 866 116 q 804 51 866 116 q 510 -14 742 -14 q 153 116 278 -14 q 28 465 28 246 q 153 815 28 685 q 510 944 278 944 q 865 815 740 944 q 990 465 990 685 q 866 116 990 246 m 350 288 q 371 264 350 288 q 510 240 392 240 q 669 288 628 240 q 710 465 710 335 q 669 643 710 596 q 510 690 628 690 q 350 643 392 690 q 308 465 308 596 q 350 288 308 335 z "},"1":{"ha":565,"x_min":14,"x_max":524,"o":"m 524 0 l 263 0 l 263 639 l 14 639 l 14 815 l 49 815 q 188 840 132 815 q 281 931 244 864 l 524 931 l 524 0 z "},"2":{"ha":917,"x_min":18,"x_max":889,"o":"m 886 0 l 18 0 l 18 164 q 80 352 18 283 q 292 468 142 421 l 544 549 q 609 581 590 564 q 628 629 628 597 q 597 688 628 669 q 468 707 567 707 q 317 678 356 707 q 278 583 278 650 l 278 565 l 22 565 l 22 586 q 135 842 22 740 q 478 944 247 944 q 790 860 690 944 q 889 625 889 775 q 815 431 889 501 q 606 326 740 360 l 397 275 q 341 260 357 265 q 309 240 325 254 q 293 203 293 225 l 554 235 l 886 235 l 886 0 z "},"3":{"ha":956,"x_min":28,"x_max":942,"o":"m 489 -14 q 28 325 28 -14 l 28 347 l 306 347 l 306 322 q 314 268 306 283 q 358 244 322 253 q 476 236 393 236 q 636 250 596 236 q 676 307 676 264 q 656 354 676 340 q 589 368 636 368 l 313 368 l 313 582 l 569 582 q 638 635 638 582 q 606 682 638 669 q 474 694 575 694 q 337 678 368 694 q 306 608 306 661 l 306 604 l 28 604 l 28 606 q 147 855 28 765 q 499 944 267 944 q 897 694 897 944 q 849 563 897 613 q 708 503 800 513 l 708 485 q 942 263 942 460 q 824 56 942 126 q 489 -14 706 -14 z "},"4":{"ha":1001,"x_min":14,"x_max":988,"o":"m 863 0 l 601 0 l 601 168 l 14 168 l 14 344 l 560 931 l 863 931 l 863 403 l 988 403 l 988 168 l 863 168 l 863 0 m 378 403 l 601 403 l 601 632 l 583 632 l 378 421 l 378 403 z "},"5":{"ha":1007,"x_min":42,"x_max":965,"o":"m 853 77 q 798 32 853 77 q 507 -14 742 -14 q 157 60 272 -14 q 42 297 42 135 l 42 306 l 311 306 l 311 297 q 350 239 311 254 q 511 224 389 224 q 654 246 621 224 q 688 328 688 268 q 654 413 688 390 q 511 435 621 435 q 369 423 414 435 q 311 376 324 411 l 46 376 l 101 931 l 910 931 l 910 696 l 333 696 l 308 506 l 322 506 q 417 598 342 557 q 624 639 493 639 q 965 331 965 639 q 853 77 965 168 z "},"6":{"ha":997,"x_min":25,"x_max":965,"o":"m 528 -14 q 143 100 261 -14 q 25 458 25 214 q 155 825 25 706 q 501 944 285 944 q 824 857 706 944 q 943 625 943 769 l 943 613 l 651 613 l 651 625 q 619 682 651 669 q 501 694 588 694 q 347 660 389 694 q 306 511 306 626 l 306 461 l 324 461 q 610 575 401 575 q 965 296 965 575 q 853 69 965 151 q 528 -14 740 -14 m 513 238 q 655 255 619 238 q 690 315 690 272 q 656 380 690 363 q 513 397 621 397 q 356 381 392 397 q 321 315 321 364 q 358 255 321 272 q 513 238 396 238 z "},"7":{"ha":849,"x_min":14,"x_max":849,"o":"m 467 0 l 164 0 q 180 161 164 85 q 217 293 196 238 q 278 404 239 349 q 348 494 318 460 q 430 569 378 528 q 508 627 482 610 q 583 678 533 644 l 583 696 l 14 696 l 14 931 l 849 931 l 849 721 q 711 582 758 632 q 608 460 664 532 q 527 326 553 388 q 484 181 501 264 q 467 0 467 99 z "},"8":{"ha":964,"x_min":21,"x_max":943,"o":"m 483 -14 q 143 53 265 -14 q 21 257 21 119 q 236 485 21 442 l 236 503 q 51 699 51 538 q 162 880 51 815 q 482 944 272 944 q 805 880 694 944 q 915 699 915 815 q 728 503 915 538 l 728 485 q 885 415 828 467 q 943 257 943 363 q 821 53 943 119 q 483 -14 699 -14 m 482 565 q 621 580 586 565 q 656 629 656 594 q 622 681 656 668 q 482 694 588 694 q 346 681 379 694 q 313 629 313 668 q 347 580 313 594 q 482 565 382 565 m 326 253 q 347 245 326 253 q 482 236 367 236 q 638 253 597 236 q 678 314 678 271 q 640 374 678 358 q 482 389 601 389 q 324 374 363 389 q 286 314 286 358 q 326 253 286 271 z "},"9":{"ha":997,"x_min":25,"x_max":965,"o":"m 499 -14 q 176 74 294 -14 q 57 306 57 161 l 57 318 l 349 318 l 349 306 q 381 249 349 261 q 499 236 413 236 q 645 270 606 236 q 685 419 685 304 l 685 469 l 667 469 q 381 356 589 356 q 25 635 25 356 q 138 862 25 779 q 463 944 250 944 q 847 831 729 944 q 965 472 965 717 q 838 106 965 225 q 499 -14 711 -14 m 478 533 q 634 550 599 533 q 669 615 669 567 q 632 676 669 658 q 478 693 594 693 q 335 676 371 693 q 300 615 300 658 q 335 551 300 568 q 478 533 369 533 z "},"\r":{"ha":833,"x_min":0,"x_max":0,"o":""}," ":{"ha":194,"x_min":0,"x_max":0,"o":""},"!":{"ha":489,"x_min":75,"x_max":414,"o":"m 378 306 l 111 306 q 93 565 111 351 q 75 833 75 778 l 75 931 l 414 931 l 414 833 q 396 564 414 778 q 378 306 378 350 m 393 0 l 94 0 l 94 246 l 393 246 l 393 0 z "},"\"":{"ha":688,"x_min":28,"x_max":660,"o":"m 606 486 l 442 486 l 389 706 l 389 931 l 660 931 l 660 706 l 606 486 m 246 486 l 82 486 l 28 706 l 28 931 l 299 931 l 299 706 l 246 486 z "},"#":{"ha":1224,"x_min":28,"x_max":1196,"o":"m 349 0 l 94 0 l 161 165 l 28 165 l 28 399 l 254 399 l 293 496 l 108 496 l 108 729 l 386 729 l 467 931 l 721 931 l 640 729 l 793 729 l 874 931 l 1128 931 l 1047 729 l 1196 729 l 1196 496 l 954 496 l 915 399 l 1114 399 l 1114 165 l 822 165 l 756 0 l 501 0 l 568 165 l 415 165 l 349 0 m 542 501 l 499 394 l 667 394 l 710 501 l 542 501 z "},"$":{"ha":950,"x_min":21,"x_max":929,"o":"m 625 -139 l 382 -139 l 382 -8 q 35 324 35 32 l 35 332 l 296 332 l 296 303 q 331 239 296 254 q 493 224 365 224 q 638 234 607 224 q 668 278 668 244 q 649 315 668 303 q 574 335 629 328 l 282 374 q 21 640 21 410 q 108 838 21 754 q 382 940 196 922 l 382 1069 l 625 1069 l 625 931 q 838 818 767 901 q 910 607 910 735 l 910 599 l 649 599 l 649 619 q 610 690 649 672 q 444 708 571 708 q 315 695 349 708 q 282 650 282 682 q 297 617 282 628 q 349 600 311 606 l 640 557 q 929 288 929 515 q 854 100 929 179 q 625 -4 779 21 l 625 -139 z "},"%":{"ha":1143,"x_min":14,"x_max":1129,"o":"m 449 543 q 416 513 449 543 q 265 482 382 482 q 81 543 149 482 q 14 714 14 604 q 81 885 14 824 q 265 947 149 947 q 449 885 382 947 q 517 714 517 824 q 449 543 517 604 m 303 0 l 51 0 l 842 931 l 1093 931 l 303 0 m 210 661 q 217 655 210 661 q 265 649 224 649 q 321 661 307 649 q 335 714 335 674 q 320 768 335 754 q 265 782 306 782 q 210 768 225 782 q 196 714 196 754 q 210 661 196 674 m 1062 46 q 1028 15 1062 46 q 878 -15 994 -15 q 694 46 761 -15 q 626 217 626 107 q 694 388 626 326 q 878 450 761 450 q 1062 388 994 450 q 1129 217 1129 326 q 1062 46 1129 107 m 822 164 q 829 158 822 164 q 878 151 836 151 q 933 164 919 151 q 947 217 947 176 q 933 271 947 257 q 878 285 918 285 q 823 271 838 285 q 808 217 808 257 q 822 164 808 176 z "},"&":{"ha":1074,"x_min":28,"x_max":1046,"o":"m 472 -14 q 28 261 28 -14 q 90 422 28 365 q 261 485 153 478 l 261 503 q 119 565 168 511 q 71 700 71 619 q 457 950 71 950 l 603 950 l 603 713 l 419 713 q 351 700 371 713 q 332 646 332 688 q 351 594 332 606 q 413 582 369 582 l 654 582 l 654 700 l 911 700 l 911 582 l 1046 582 l 1046 368 l 911 368 l 911 344 q 813 77 911 168 q 472 -14 714 -14 m 330 238 q 348 231 330 238 q 482 224 367 224 q 626 240 597 224 q 654 331 654 257 l 654 368 l 378 368 q 314 353 335 368 q 293 296 293 339 q 330 238 293 253 z "},"'":{"ha":326,"x_min":28,"x_max":299,"o":"m 246 486 l 82 486 l 28 706 l 28 931 l 299 931 l 299 706 l 246 486 z "},"(":{"ha":485,"x_min":28,"x_max":471,"o":"m 471 21 l 339 -100 q 28 465 28 169 q 339 1031 28 761 l 471 910 q 344 690 372 774 q 317 465 317 607 q 344 240 317 324 q 471 21 372 157 z "},")":{"ha":546,"x_min":56,"x_max":499,"o":"m 56 910 l 188 1031 q 499 465 499 761 q 188 -100 499 169 l 56 21 q 182 240 154 157 q 210 465 210 324 q 182 690 210 607 q 56 910 154 774 z "},"*":{"ha":569,"x_min":14,"x_max":556,"o":"m 276 547 l 207 436 l 58 543 l 143 643 l 139 657 l 14 689 l 69 863 l 193 810 l 204 819 l 193 950 l 376 950 l 365 819 l 376 810 l 501 861 l 556 688 l 428 657 l 422 643 l 508 543 l 358 435 l 293 547 l 276 547 z "},"+":{"ha":742,"x_min":42,"x_max":700,"o":"m 482 136 l 260 136 l 260 358 l 42 358 l 42 572 l 260 572 l 260 794 l 482 794 l 482 572 l 700 572 l 700 358 l 482 358 l 482 136 z "},",":{"ha":422,"x_min":42,"x_max":381,"o":"m 150 -231 l 54 -231 l 54 -69 l 142 -69 q 179 -59 168 -69 q 190 -19 190 -49 l 190 0 l 42 0 l 42 267 l 381 267 l 381 -18 q 321 -177 381 -124 q 150 -231 261 -231 z "},"-":{"ha":668,"x_min":42,"x_max":626,"o":"m 626 301 l 42 301 l 42 524 l 626 524 l 626 301 z "},".":{"ha":422,"x_min":42,"x_max":381,"o":"m 381 0 l 42 0 l 42 267 l 381 267 l 381 0 z "},"/":{"ha":714,"x_min":-28,"x_max":751,"o":"m 251 -28 l -28 -28 l 472 958 l 751 958 l 251 -28 z "},":":{"ha":422,"x_min":42,"x_max":381,"o":"m 381 435 l 42 435 l 42 701 l 381 701 l 381 435 m 381 0 l 42 0 l 42 267 l 381 267 l 381 0 z "},";":{"ha":422,"x_min":42,"x_max":381,"o":"m 381 435 l 42 435 l 42 701 l 381 701 l 381 435 m 150 -231 l 54 -231 l 54 -69 l 142 -69 q 179 -59 168 -69 q 190 -19 190 -49 l 190 0 l 42 0 l 42 267 l 381 267 l 381 -18 q 321 -177 381 -124 q 150 -231 261 -231 z "},"<":{"ha":742,"x_min":36,"x_max":694,"o":"m 36 622 l 694 794 l 694 554 l 271 474 l 271 457 l 694 376 l 694 136 l 36 308 l 36 622 z "},"=":{"ha":742,"x_min":42,"x_max":701,"o":"m 701 518 l 42 518 l 42 732 l 701 732 l 701 518 m 700 196 l 42 196 l 42 410 l 700 410 l 700 196 z "},">":{"ha":742,"x_min":42,"x_max":700,"o":"m 700 308 l 42 136 l 42 376 l 465 457 l 465 474 l 42 554 l 42 794 l 700 622 l 700 308 z "},"?":{"ha":906,"x_min":14,"x_max":878,"o":"m 529 310 l 268 310 l 268 361 q 315 484 268 440 q 443 557 363 528 l 540 593 q 600 621 583 608 q 617 656 617 633 q 608 682 617 672 q 563 699 600 692 q 458 707 526 707 q 311 685 351 707 q 271 611 271 663 l 271 544 l 14 544 l 14 586 q 127 843 14 742 q 478 944 240 944 q 781 867 683 944 q 878 665 878 790 q 847 542 878 594 q 778 467 815 490 q 689 424 742 444 l 585 385 q 540 356 550 371 q 529 317 529 342 l 529 310 m 549 0 l 250 0 l 250 246 l 549 246 l 549 0 z "},"@":{"ha":1279,"x_min":28,"x_max":1251,"o":"m 533 57 q 381 124 440 57 q 321 340 321 192 q 381 551 321 481 q 538 622 442 622 q 645 588 604 622 q 693 493 686 553 l 707 493 l 707 611 l 935 611 l 935 292 q 975 249 935 249 q 1022 275 1011 249 q 1033 393 1033 301 q 951 635 1033 569 q 656 701 869 701 q 340 625 422 701 q 258 335 258 549 q 329 60 258 133 q 594 -12 400 -12 q 807 14 710 -12 l 847 -158 q 565 -207 706 -207 q 170 -65 313 -207 q 28 335 28 78 q 201 758 28 600 q 671 915 375 915 q 1099 780 947 915 q 1251 415 1251 644 q 1171 152 1251 247 q 956 57 1090 57 q 791 91 856 57 q 704 185 726 125 l 689 185 q 642 94 679 132 q 533 57 604 57 m 575 424 q 568 413 575 424 q 561 340 561 401 q 575 256 561 279 q 628 232 589 232 q 680 249 667 232 q 693 314 693 267 l 693 367 q 680 430 693 413 q 628 447 667 447 q 575 424 589 447 z "},"A":{"ha":1150,"x_min":-14,"x_max":1164,"o":"m 279 0 l -14 0 l 388 931 l 761 931 l 1164 0 l 864 0 l 793 172 l 351 172 l 279 0 m 504 538 l 450 407 l 697 407 l 643 538 l 582 694 l 564 694 l 504 538 z "},"B":{"ha":992,"x_min":42,"x_max":978,"o":"m 665 0 l 42 0 l 42 931 l 633 931 q 935 706 935 931 q 703 494 935 504 l 703 481 q 908 417 839 475 q 978 258 978 358 q 665 0 978 0 m 301 696 l 301 578 l 606 578 q 659 590 644 578 q 674 636 674 603 q 656 682 674 668 q 599 696 639 696 l 301 696 m 301 364 l 301 235 l 632 235 q 697 248 679 235 q 714 300 714 261 q 697 351 714 339 q 632 364 681 364 l 301 364 z "},"C":{"ha":1069,"x_min":28,"x_max":1042,"o":"m 542 -14 q 165 116 301 -14 q 28 465 28 246 q 165 815 28 685 q 542 944 301 944 q 909 839 776 944 q 1042 547 1042 733 l 1042 524 l 750 524 l 750 547 q 705 661 750 628 q 546 694 660 694 q 354 649 403 694 q 306 465 306 603 q 354 282 306 328 q 546 236 403 236 q 705 269 660 236 q 750 383 750 303 l 750 407 l 1042 407 l 1042 383 q 909 92 1042 197 q 542 -14 776 -14 z "},"D":{"ha":1057,"x_min":57,"x_max":1029,"o":"m 528 0 l 57 0 l 57 931 l 528 931 q 894 808 760 931 q 1029 465 1029 685 q 894 123 1029 246 q 528 0 760 0 m 528 696 l 318 696 l 318 235 l 528 235 q 634 241 597 235 q 700 271 671 247 q 740 340 729 294 q 750 465 750 386 q 740 590 750 544 q 700 660 729 636 q 634 690 671 683 q 528 696 597 696 z "},"E":{"ha":900,"x_min":42,"x_max":868,"o":"m 868 0 l 42 0 l 42 931 l 868 931 l 868 696 l 303 696 l 303 585 l 847 585 l 847 351 l 303 351 l 303 235 l 868 235 l 868 0 z "},"F":{"ha":900,"x_min":42,"x_max":874,"o":"m 303 0 l 42 0 l 42 931 l 874 931 l 874 696 l 303 696 l 303 557 l 853 557 l 853 324 l 303 324 l 303 0 z "},"G":{"ha":1107,"x_min":28,"x_max":1071,"o":"m 492 -14 q 151 116 274 -14 q 28 465 28 246 q 172 815 28 685 q 567 944 315 944 q 936 847 803 944 q 1069 575 1069 749 l 1069 565 l 778 565 l 778 575 q 730 667 778 640 q 560 694 682 694 q 357 649 408 694 q 306 465 306 603 q 354 282 306 328 q 546 236 403 236 q 747 251 696 236 q 807 317 797 265 l 521 317 l 521 508 l 1071 508 l 1071 0 l 828 0 l 828 199 l 814 199 q 492 -14 765 -14 z "},"H":{"ha":1039,"x_min":42,"x_max":997,"o":"m 303 0 l 42 0 l 42 931 l 303 931 l 303 585 l 736 585 l 736 931 l 997 931 l 997 0 l 736 0 l 736 350 l 303 350 l 303 0 z "},"I":{"ha":344,"x_min":42,"x_max":303,"o":"m 303 0 l 42 0 l 42 931 l 303 931 l 303 0 z "},"J":{"ha":922,"x_min":14,"x_max":886,"o":"m 449 -14 q 115 88 217 -14 q 14 399 14 190 l 14 435 l 292 435 l 292 401 q 295 322 292 347 q 314 274 299 296 q 360 245 329 251 q 449 239 392 239 q 582 267 556 239 q 608 388 608 296 l 608 931 l 886 931 l 886 385 q 784 85 886 183 q 449 -14 682 -14 z "},"K":{"ha":1015,"x_min":42,"x_max":1029,"o":"m 303 0 l 42 0 l 42 931 l 303 931 l 303 585 l 490 585 l 717 931 l 1029 931 l 707 474 l 1022 0 l 710 0 l 493 331 l 303 331 l 303 0 z "},"L":{"ha":868,"x_min":42,"x_max":840,"o":"m 840 0 l 42 0 l 42 931 l 303 931 l 303 235 l 840 235 l 840 0 z "},"M":{"ha":1322,"x_min":42,"x_max":1281,"o":"m 303 0 l 42 0 l 42 931 l 396 931 l 567 544 l 658 304 l 676 304 l 764 544 l 926 931 l 1281 931 l 1281 0 l 1019 0 l 1019 385 l 1029 540 l 1011 540 l 958 385 l 819 56 l 503 56 l 364 385 l 311 540 l 293 540 l 303 385 l 303 0 z "},"N":{"ha":1022,"x_min":42,"x_max":981,"o":"m 303 0 l 42 0 l 42 931 l 319 931 l 578 582 l 714 368 l 732 368 l 719 571 l 719 931 l 981 931 l 981 0 l 703 0 l 428 358 l 310 542 l 292 542 l 303 364 l 303 0 z "},"O":{"ha":1092,"x_min":28,"x_max":1064,"o":"m 543 -14 q 165 116 303 -14 q 28 465 28 246 q 165 815 28 685 q 543 944 303 944 q 926 815 789 944 q 1064 465 1064 686 q 926 115 1064 244 q 543 -14 789 -14 m 543 236 q 736 282 686 236 q 786 465 786 328 q 736 649 786 603 q 543 694 686 694 q 353 649 401 694 q 306 465 306 603 q 353 282 306 328 q 543 236 401 236 z "},"P":{"ha":931,"x_min":42,"x_max":917,"o":"m 303 0 l 42 0 l 42 931 l 557 931 q 820 839 724 931 q 917 583 917 747 q 820 327 917 419 q 557 235 724 235 l 303 235 l 303 0 m 528 696 l 303 696 l 303 469 l 528 469 q 628 492 600 469 q 657 583 657 514 q 628 674 657 651 q 528 696 600 696 z "},"Q":{"ha":1092,"x_min":28,"x_max":1064,"o":"m 975 -196 l 632 -196 l 481 -11 q 148 133 268 6 q 28 465 28 261 q 165 815 28 685 q 543 944 303 944 q 926 815 789 944 q 1064 465 1064 686 q 989 189 1064 303 q 772 24 914 75 l 975 -196 m 543 236 q 736 282 686 236 q 786 465 786 328 q 736 649 786 603 q 543 694 686 694 q 353 649 401 694 q 306 465 306 603 q 353 282 306 328 q 543 236 401 236 z "},"R":{"ha":985,"x_min":42,"x_max":985,"o":"m 303 0 l 42 0 l 42 931 l 585 931 q 864 857 768 931 q 960 646 960 783 q 899 469 960 533 q 708 389 839 406 l 708 375 q 808 326 775 358 q 869 233 840 294 l 985 0 l 683 0 l 572 228 q 516 299 547 281 q 410 317 485 317 l 303 317 l 303 0 m 303 696 l 303 511 l 582 511 q 664 529 642 511 q 686 604 686 547 q 663 677 686 658 q 582 696 640 696 l 303 696 z "},"S":{"ha":950,"x_min":21,"x_max":929,"o":"m 493 -14 q 35 324 35 -14 l 35 332 l 296 332 l 296 303 q 331 239 296 254 q 493 224 365 224 q 638 234 607 224 q 668 278 668 244 q 649 315 668 303 q 574 335 629 328 l 282 374 q 21 640 21 410 q 130 856 21 767 q 472 944 239 944 q 799 856 689 944 q 910 607 910 767 l 910 599 l 649 599 l 649 619 q 610 690 649 672 q 444 708 571 708 q 315 695 349 708 q 282 650 282 682 q 297 617 282 628 q 349 600 311 606 l 640 557 q 929 288 929 515 q 822 72 929 157 q 493 -14 714 -14 z "},"T":{"ha":960,"x_min":21,"x_max":939,"o":"m 611 0 l 350 0 l 350 696 l 21 696 l 21 931 l 939 931 l 939 696 l 611 696 l 611 0 z "},"U":{"ha":1022,"x_min":36,"x_max":986,"o":"m 867 92 q 808 39 867 92 q 511 -14 749 -14 q 155 92 274 -14 q 36 390 36 199 l 36 931 l 297 931 l 297 411 q 340 274 297 310 q 511 239 382 239 q 683 274 640 239 q 725 411 725 310 l 725 931 l 986 931 l 986 390 q 867 92 986 199 z "},"V":{"ha":1094,"x_min":-14,"x_max":1108,"o":"m 735 0 l 360 0 l -14 931 l 301 931 l 542 264 l 560 264 l 794 931 l 1108 931 l 735 0 z "},"W":{"ha":1560,"x_min":13,"x_max":1547,"o":"m 594 0 l 207 0 l 13 931 l 304 931 l 382 457 l 407 247 l 425 247 l 463 457 l 588 931 l 981 931 l 1094 457 l 1128 247 l 1146 247 l 1174 457 l 1261 931 l 1547 931 l 1335 0 l 947 0 l 850 399 l 789 690 l 771 690 l 706 399 l 594 0 z "},"X":{"ha":1111,"x_min":-14,"x_max":1125,"o":"m 328 0 l -14 0 l 338 457 l 338 475 l -14 931 l 328 931 l 553 629 l 571 629 l 783 931 l 1125 931 l 775 469 l 775 451 l 1125 0 l 783 0 l 560 303 l 542 303 l 328 0 z "},"Y":{"ha":1064,"x_min":-21,"x_max":1085,"o":"m 658 0 l 397 0 l 397 296 l -21 931 l 303 931 l 443 710 l 522 579 l 540 579 l 619 710 l 760 931 l 1085 931 l 658 294 l 658 0 z "},"Z":{"ha":968,"x_min":35,"x_max":933,"o":"m 933 0 l 35 0 l 35 235 l 531 678 l 531 696 l 43 696 l 43 931 l 925 931 l 925 696 l 407 253 l 407 235 l 933 235 l 933 0 z "},"[":{"ha":454,"x_min":42,"x_max":440,"o":"m 440 -83 l 42 -83 l 42 1014 l 440 1014 l 440 800 l 283 800 l 283 131 l 440 131 l 440 -83 z "},"\\":{"ha":724,"x_min":-28,"x_max":751,"o":"m 751 -28 l 472 -28 l -28 958 l 251 958 l 751 -28 z "},"]":{"ha":489,"x_min":21,"x_max":419,"o":"m 21 131 l 178 131 l 178 800 l 21 800 l 21 1014 l 419 1014 l 419 -83 l 21 -83 l 21 131 z "},"^":{"ha":732,"x_min":42,"x_max":690,"o":"m 285 389 l 42 389 l 213 931 l 521 931 l 690 389 l 447 389 l 375 694 l 357 694 l 285 389 z "},"_":{"ha":528,"x_min":14,"x_max":514,"o":"m 514 -185 l 14 -185 l 14 0 l 514 0 l 514 -185 z "},"a":{"ha":826,"x_min":21,"x_max":790,"o":"m 268 -14 q 85 37 150 -14 q 21 178 21 88 q 247 363 21 340 l 532 390 l 532 404 q 506 471 532 456 q 408 486 481 486 q 319 470 343 486 q 296 411 296 454 l 296 406 l 35 406 l 35 408 q 142 631 35 547 q 428 714 250 714 q 699 631 607 714 q 790 399 790 549 l 790 0 l 546 0 l 546 147 l 532 147 q 268 -14 489 -14 m 283 194 q 346 168 283 168 q 485 184 444 168 q 531 246 525 200 l 317 221 q 283 194 283 217 z "},"b":{"ha":929,"x_min":42,"x_max":901,"o":"m 286 0 l 42 0 l 42 931 l 303 931 l 303 519 l 317 519 q 581 714 351 714 q 817 618 733 714 q 901 350 901 522 q 815 83 901 179 q 569 -14 729 -14 q 382 35 447 -14 q 300 189 317 85 l 286 189 l 286 0 m 303 349 q 342 251 303 276 q 475 225 382 225 q 601 253 565 225 q 638 350 638 281 q 601 448 638 419 q 475 476 565 476 q 342 453 382 476 q 303 358 303 429 l 303 349 z "},"c":{"ha":854,"x_min":28,"x_max":826,"o":"m 435 -14 q 138 83 247 -14 q 28 350 28 181 q 138 617 28 519 q 435 714 247 714 q 720 629 614 714 q 826 404 826 544 l 826 382 l 567 382 l 567 393 q 533 463 567 444 q 429 481 499 481 q 320 454 353 481 q 288 350 288 428 q 320 247 288 272 q 429 221 353 221 q 533 238 499 221 q 567 307 567 256 l 567 319 l 826 319 l 826 296 q 720 71 826 156 q 435 -14 614 -14 z "},"d":{"ha":929,"x_min":28,"x_max":888,"o":"m 360 -14 q 114 83 200 -14 q 28 350 28 179 q 112 618 28 522 q 349 714 196 714 q 613 519 578 714 l 626 519 l 626 931 l 888 931 l 888 0 l 643 0 l 643 189 l 629 189 q 547 35 613 85 q 360 -14 482 -14 m 328 448 q 310 434 328 448 q 292 350 292 419 q 328 253 292 281 q 454 225 364 225 q 587 251 547 225 q 626 349 626 276 l 626 358 q 587 453 626 429 q 454 476 547 476 q 328 448 364 476 z "},"e":{"ha":850,"x_min":28,"x_max":822,"o":"m 432 -14 q 135 74 243 -14 q 28 350 28 161 q 138 616 28 518 q 426 714 249 714 q 717 624 611 714 q 822 368 822 535 q 818 301 822 339 l 269 301 q 305 216 272 239 q 422 193 338 193 q 527 207 499 193 q 556 253 556 221 l 556 268 l 817 268 l 817 251 q 712 60 817 133 q 432 -14 607 -14 m 421 514 q 315 496 349 514 q 274 433 282 478 l 569 433 q 528 496 563 478 q 421 514 494 514 z "},"f":{"ha":563,"x_min":7,"x_max":549,"o":"m 363 0 l 101 0 l 101 486 l 7 486 l 7 700 l 107 700 q 228 867 129 804 q 493 931 328 931 l 549 931 l 549 744 l 451 744 q 369 735 393 744 q 346 700 344 726 l 549 700 l 549 486 l 363 486 l 363 0 z "},"g":{"ha":915,"x_min":28,"x_max":874,"o":"m 353 78 q 113 162 197 78 q 28 397 28 246 q 116 630 28 546 q 360 714 204 714 q 615 536 586 714 l 629 536 l 629 700 l 874 700 l 874 118 q 456 -250 874 -250 q 171 -176 272 -250 q 69 36 69 -101 l 331 36 q 353 -22 331 -10 q 474 -35 376 -35 q 586 -10 560 -35 q 613 100 613 14 l 613 247 l 599 247 q 353 78 568 78 m 292 397 q 324 323 292 344 q 447 301 357 301 q 576 319 539 301 q 613 389 613 336 l 613 399 q 576 471 613 453 q 447 489 539 489 q 324 469 357 489 q 292 397 292 449 z "},"h":{"ha":907,"x_min":42,"x_max":871,"o":"m 303 0 l 42 0 l 42 931 l 303 931 l 303 488 l 317 488 q 403 650 335 586 q 596 714 471 714 q 801 638 731 714 q 871 440 871 563 l 871 0 l 610 0 l 610 353 q 576 453 610 426 q 453 481 542 481 q 333 456 364 481 q 303 361 303 431 l 303 0 z "},"i":{"ha":344,"x_min":42,"x_max":303,"o":"m 303 764 l 42 764 l 42 931 l 303 931 l 303 764 m 303 0 l 42 0 l 42 700 l 303 700 l 303 0 z "},"j":{"ha":344,"x_min":-36,"x_max":303,"o":"m 303 764 l 42 764 l 42 931 l 303 931 l 303 764 m -11 -236 l -36 -236 l -36 -44 l -10 -44 q 42 6 42 -44 l 42 700 l 303 700 l 303 44 q 226 -175 303 -114 q -11 -236 149 -236 z "},"k":{"ha":875,"x_min":42,"x_max":889,"o":"m 303 0 l 42 0 l 42 931 l 303 931 l 303 457 l 426 457 l 581 700 l 889 700 l 640 360 l 885 0 l 576 0 l 429 224 l 303 224 l 303 0 z "},"l":{"ha":344,"x_min":42,"x_max":303,"o":"m 303 0 l 42 0 l 42 931 l 303 931 l 303 0 z "},"m":{"ha":1392,"x_min":42,"x_max":1356,"o":"m 303 0 l 42 0 l 42 700 l 286 700 l 286 488 l 300 488 q 373 651 313 588 q 556 714 433 714 q 738 651 674 714 q 814 488 803 589 l 828 488 q 903 651 840 588 q 1092 714 965 714 q 1288 641 1221 714 q 1356 449 1356 568 l 1356 0 l 1094 0 l 1094 353 q 1067 453 1094 426 q 958 481 1039 481 q 855 456 881 481 q 829 361 829 431 l 829 0 l 568 0 l 568 353 q 540 453 568 426 q 432 481 513 481 q 328 456 354 481 q 303 361 303 431 l 303 0 z "},"n":{"ha":893,"x_min":42,"x_max":857,"o":"m 303 0 l 42 0 l 42 700 l 286 700 l 286 488 l 300 488 q 381 650 313 586 q 579 714 449 714 q 786 641 715 714 q 857 449 857 568 l 857 0 l 596 0 l 596 353 q 564 453 596 425 q 446 481 532 481 q 332 456 361 481 q 303 361 303 431 l 303 0 z "},"o":{"ha":858,"x_min":21,"x_max":838,"o":"m 726 84 q 670 35 726 84 q 429 -14 614 -14 q 133 84 244 -14 q 21 350 21 182 q 133 617 21 519 q 429 714 244 714 q 726 617 614 714 q 838 350 838 519 q 726 84 838 182 m 310 245 q 326 231 310 245 q 429 217 342 217 q 548 245 517 217 q 579 350 579 274 q 548 456 579 426 q 429 485 517 485 q 310 456 342 485 q 279 350 279 426 q 310 245 279 274 z "},"p":{"ha":929,"x_min":42,"x_max":901,"o":"m 303 -236 l 42 -236 l 42 700 l 286 700 l 286 511 l 300 511 q 382 665 317 615 q 569 714 447 714 q 815 617 729 714 q 901 350 901 521 q 817 82 901 178 q 581 -14 733 -14 q 317 181 351 -14 l 303 181 l 303 -236 m 303 342 q 342 247 303 271 q 475 224 382 224 q 601 252 565 224 q 638 350 638 281 q 601 447 638 419 q 475 475 565 475 q 342 449 382 475 q 303 351 303 424 l 303 342 z "},"q":{"ha":929,"x_min":28,"x_max":888,"o":"m 349 -14 q 112 82 196 -14 q 28 350 28 178 q 114 617 28 521 q 360 714 200 714 q 547 665 482 714 q 629 511 613 615 l 643 511 l 643 700 l 888 700 l 888 -236 l 626 -236 l 626 181 l 613 181 q 349 -14 578 -14 m 328 447 q 310 433 328 447 q 292 350 292 419 q 328 252 292 281 q 454 224 364 224 q 587 247 547 224 q 626 342 626 271 l 626 351 q 587 449 626 424 q 454 475 547 475 q 328 447 364 475 z "},"r":{"ha":760,"x_min":42,"x_max":746,"o":"m 303 0 l 42 0 l 42 700 l 286 700 l 286 517 l 300 517 q 373 661 315 608 q 531 714 431 714 q 694 649 642 714 q 746 472 746 583 l 746 333 l 485 333 l 485 415 q 465 477 485 460 q 394 494 446 494 q 322 478 342 494 q 303 418 303 461 l 303 0 z "},"s":{"ha":801,"x_min":22,"x_max":781,"o":"m 418 -14 q 137 53 235 -14 q 39 243 39 121 l 39 249 l 300 249 l 300 235 q 323 199 300 207 q 419 192 346 192 q 503 199 483 192 q 524 225 524 206 q 510 248 524 242 q 447 260 496 254 l 244 282 q 22 483 22 306 q 110 649 22 585 q 383 714 199 714 q 756 454 756 714 l 756 449 l 494 449 l 494 457 q 472 498 494 486 q 375 510 450 510 q 297 501 315 510 q 279 472 279 493 q 297 449 279 457 q 372 435 314 440 l 511 419 q 720 353 660 403 q 781 211 781 303 q 685 49 781 111 q 418 -14 589 -14 z "},"t":{"ha":586,"x_min":0,"x_max":565,"o":"m 565 0 l 382 0 q 175 67 247 0 q 103 267 103 133 l 103 486 l 0 486 l 0 700 l 103 700 l 103 821 l 364 821 l 364 700 l 565 700 l 565 486 l 364 486 l 364 304 q 380 249 364 263 q 440 235 396 235 l 565 235 l 565 0 z "},"u":{"ha":907,"x_min":42,"x_max":871,"o":"m 329 -14 q 115 59 188 -14 q 42 251 42 132 l 42 700 l 303 700 l 303 347 q 337 247 303 274 q 460 219 371 219 q 579 244 549 219 q 610 339 610 269 l 610 700 l 871 700 l 871 0 l 626 0 l 626 213 l 613 213 q 531 50 600 114 q 329 -14 463 -14 z "},"v":{"ha":933,"x_min":-7,"x_max":940,"o":"m 626 0 l 304 0 l -7 700 l 285 700 l 460 254 l 478 254 l 654 700 l 940 700 l 626 0 z "},"w":{"ha":1304,"x_min":-7,"x_max":1311,"o":"m 496 0 l 169 0 l -7 700 l 264 700 l 314 447 l 340 197 l 358 197 l 417 475 l 486 700 l 822 700 l 892 475 l 950 197 l 968 197 l 996 447 l 1044 700 l 1311 700 l 1126 0 l 800 0 l 710 281 l 658 490 l 640 490 l 588 281 l 496 0 z "},"x":{"ha":901,"x_min":-14,"x_max":915,"o":"m 301 0 l -14 0 l 247 339 l 247 353 l -14 700 l 306 700 l 449 489 l 463 489 l 600 700 l 915 700 l 654 357 l 654 343 l 915 0 l 596 0 l 453 206 l 439 206 l 301 0 z "},"y":{"ha":900,"x_min":-14,"x_max":914,"o":"m 196 -236 l 69 -236 l 69 0 l 272 0 q 321 8 304 0 l -14 700 l 283 700 l 404 425 l 454 264 l 472 264 l 518 428 l 622 700 l 914 700 l 582 -28 q 441 -192 528 -149 q 196 -236 354 -236 z "},"z":{"ha":803,"x_min":21,"x_max":782,"o":"m 782 0 l 21 0 l 21 222 l 274 392 l 419 465 l 419 483 l 274 472 l 42 472 l 42 700 l 761 700 l 761 478 l 486 301 l 350 232 l 350 214 l 486 228 l 782 228 l 782 0 z "},"{":{"ha":526,"x_min":28,"x_max":499,"o":"m 499 -83 l 457 -83 q 230 -10 307 -83 q 153 186 153 63 l 153 269 q 134 326 153 310 q 67 343 115 343 l 28 343 l 28 588 l 67 588 q 134 604 115 588 q 153 661 153 621 l 153 744 q 230 941 153 868 q 457 1014 307 1014 l 499 1014 l 499 760 l 450 760 q 393 706 393 760 l 393 640 q 217 474 393 474 l 217 457 q 393 290 393 457 l 393 225 q 450 171 393 171 l 499 171 l 499 -83 z "},"|":{"ha":324,"x_min":42,"x_max":282,"o":"m 282 -139 l 42 -139 l 42 1069 l 282 1069 l 282 -139 z "},"}":{"ha":533,"x_min":35,"x_max":506,"o":"m 35 1014 l 76 1014 q 303 941 226 1014 q 381 744 381 868 l 381 661 q 399 604 381 621 q 467 588 418 588 l 506 588 l 506 343 l 467 343 q 399 326 418 343 q 381 269 381 310 l 381 186 q 303 -10 381 63 q 76 -83 226 -83 l 35 -83 l 35 171 l 83 171 q 140 225 140 171 l 140 290 q 317 457 140 457 l 317 474 q 140 640 140 474 l 140 706 q 83 760 140 760 l 35 760 l 35 1014 z "},"~":{"ha":808,"x_min":42,"x_max":767,"o":"m 260 329 l 42 329 l 42 393 q 47 461 42 432 q 69 525 53 490 q 126 579 86 560 q 226 599 167 599 q 331 583 272 599 l 449 554 q 526 540 508 540 q 544 547 539 540 q 550 571 550 553 l 550 583 l 767 583 l 767 508 q 601 321 767 321 q 449 344 549 321 l 335 371 q 290 379 304 379 q 260 340 260 379 l 260 329 z "}," ":{"ha":194,"x_min":0,"x_max":0,"o":""},"¡":{"ha":422,"x_min":42,"x_max":381,"o":"m 63 694 l 361 694 l 361 449 l 63 449 l 63 694 m 78 389 l 344 389 q 363 130 344 343 q 381 -139 381 -83 l 381 -236 l 42 -236 l 42 -139 q 60 131 42 -83 q 78 389 78 344 z "},"¢":{"ha":854,"x_min":28,"x_max":826,"o":"m 563 -139 l 319 -139 l 319 -3 q 106 117 183 25 q 28 350 28 210 q 105 583 28 492 q 319 703 182 675 l 319 833 l 563 833 l 563 701 q 756 595 686 674 q 826 404 826 517 l 826 382 l 567 382 l 567 393 q 533 463 567 444 q 429 481 499 481 q 320 454 353 481 q 288 350 288 428 q 320 247 288 272 q 429 221 353 221 q 533 238 499 221 q 567 307 567 256 l 567 319 l 826 319 l 826 296 q 756 106 826 183 q 563 0 686 28 l 563 -139 z "},"£":{"ha":988,"x_min":42,"x_max":960,"o":"m 661 317 l 438 317 q 365 249 421 265 l 365 235 l 960 235 l 960 0 l 42 0 l 42 235 l 132 235 q 222 292 222 235 q 219 317 222 300 l 42 317 l 42 531 l 133 531 q 108 660 108 601 q 219 866 108 788 q 533 944 329 944 q 849 853 751 944 q 946 613 946 763 l 946 590 l 689 590 l 689 615 q 660 690 689 672 q 531 707 631 707 q 403 690 436 707 q 369 625 369 672 q 393 531 369 589 l 661 531 l 661 317 z "},"¥":{"ha":1121,"x_min":4,"x_max":1117,"o":"m 690 0 l 431 0 l 431 150 l 38 150 l 38 364 l 386 364 l 342 429 l 38 429 l 38 643 l 197 643 l 4 931 l 346 931 l 443 757 l 554 528 l 572 528 l 682 757 l 781 931 l 1117 931 l 924 643 l 1083 643 l 1083 429 l 779 429 l 735 364 l 1083 364 l 1083 150 l 690 150 l 690 0 z "},"¦":{"ha":379,"x_min":69,"x_max":310,"o":"m 310 521 l 69 521 l 69 1069 l 310 1069 l 310 521 m 310 -139 l 69 -139 l 69 410 l 310 410 l 310 -139 z "},"§":{"ha":814,"x_min":28,"x_max":786,"o":"m 425 -14 q 153 56 254 -14 q 53 246 53 126 l 53 251 l 314 251 l 314 238 q 335 195 314 206 q 433 185 357 185 q 510 193 492 185 q 529 221 529 201 q 515 244 529 238 q 454 257 501 251 l 207 290 q 70 335 113 303 q 28 424 28 367 q 65 506 28 474 q 165 543 101 539 l 165 557 q 69 609 110 569 q 28 721 28 649 q 121 885 28 819 q 389 951 214 951 q 660 881 560 951 q 761 692 761 811 l 761 686 l 500 686 l 500 700 q 478 742 500 732 q 381 753 457 753 q 303 744 322 753 q 285 717 285 736 q 299 693 285 700 q 360 681 313 686 l 643 644 q 786 519 786 626 q 749 433 786 467 q 649 394 713 399 l 649 381 q 745 328 704 368 q 786 217 786 289 q 693 52 786 118 q 425 -14 600 -14 m 317 451 l 493 429 q 529 453 529 424 q 494 479 529 475 l 321 501 q 285 479 285 506 q 317 451 285 456 z "},"©":{"ha":1078,"x_min":28,"x_max":1050,"o":"m 912 115 q 843 51 912 115 q 539 -12 774 -12 q 166 115 304 -12 q 28 465 28 243 q 166 815 28 686 q 539 943 304 943 q 912 815 774 943 q 1050 465 1050 686 q 912 115 1050 243 m 297 229 q 330 199 297 229 q 539 168 364 168 q 781 229 714 168 q 849 465 849 290 q 781 701 849 640 q 539 763 714 763 q 297 701 364 763 q 229 465 229 640 q 297 229 229 290 m 543 214 q 342 281 414 214 q 271 465 271 349 q 342 649 271 582 q 543 717 414 717 q 735 657 663 717 q 807 494 807 597 l 807 483 l 622 483 l 622 492 q 604 535 622 522 q 543 549 586 549 q 473 531 490 549 q 456 465 456 514 q 473 399 456 417 q 543 382 490 382 q 622 439 622 382 l 622 447 l 807 447 l 807 436 q 735 274 807 333 q 543 214 663 214 z "},"ª":{"ha":317,"x_min":28,"x_max":289,"o":"m 113 728 q 28 785 28 728 q 108 842 28 833 l 201 851 q 163 876 200 876 q 131 872 140 876 q 122 854 122 868 l 122 853 l 36 853 l 36 856 q 71 920 36 896 q 168 944 106 944 q 289 840 289 944 l 289 732 l 207 732 l 207 775 l 203 775 q 113 728 192 728 m 114 790 q 140 781 114 781 q 204 810 204 781 l 129 800 q 114 790 114 797 z "},"«":{"ha":694,"x_min":42,"x_max":653,"o":"m 375 569 l 653 750 l 653 483 l 549 433 l 549 414 l 653 364 l 653 97 l 375 278 l 375 569 m 42 569 l 319 750 l 319 483 l 215 433 l 215 414 l 319 364 l 319 97 l 42 278 l 42 569 z "},"­":{"ha":833,"x_min":42,"x_max":626,"o":"m 626 301 l 42 301 l 42 524 l 626 524 l 626 301 z "},"®":{"ha":592,"x_min":28,"x_max":564,"o":"m 490 519 q 452 485 490 519 q 296 451 415 451 q 102 519 176 451 q 28 704 28 588 q 102 889 28 821 q 296 957 176 957 q 490 889 415 957 q 564 704 564 821 q 490 519 564 588 m 170 585 q 186 569 170 585 q 296 553 203 553 q 422 585 389 553 q 454 704 454 618 q 422 823 454 790 q 296 856 389 856 q 170 823 203 856 q 138 704 138 790 q 170 585 138 618 m 268 610 l 188 610 l 188 804 l 321 804 q 407 742 407 804 q 391 699 407 714 q 350 685 375 685 l 350 682 q 386 651 369 675 l 414 610 l 325 610 l 299 653 q 274 664 292 664 l 268 664 l 268 610 m 268 738 l 268 715 l 317 715 q 329 726 329 715 q 317 738 329 738 l 268 738 z "},"°":{"ha":331,"x_min":14,"x_max":317,"o":"m 276 716 q 256 698 276 716 q 165 681 236 681 q 54 716 94 681 q 14 813 14 751 q 54 909 14 874 q 165 944 94 944 q 276 909 236 944 q 317 813 317 874 q 276 716 317 751 m 129 784 q 134 780 129 784 q 165 776 139 776 q 201 784 192 776 q 211 813 211 792 q 201 841 211 833 q 165 849 192 849 q 129 841 139 849 q 119 813 119 833 q 129 784 119 792 z "},"±":{"ha":743,"x_min":42,"x_max":701,"o":"m 700 -19 l 42 -19 l 42 194 l 261 194 l 261 358 l 42 358 l 42 572 l 261 572 l 261 794 l 482 794 l 482 572 l 701 572 l 701 358 l 482 358 l 482 194 l 700 194 l 700 -19 z "},"²":{"ha":542,"x_min":28,"x_max":514,"o":"m 499 472 l 36 472 l 36 547 q 157 700 36 663 l 303 744 q 326 755 321 750 q 332 769 332 760 q 322 786 332 782 q 274 790 311 790 q 221 783 235 790 q 207 751 207 775 l 207 738 l 28 738 l 28 758 q 94 891 28 838 q 286 944 160 944 q 456 901 397 944 q 514 782 514 857 q 476 689 514 722 q 354 639 439 656 l 210 608 l 211 603 l 211 597 l 432 625 l 499 625 l 499 472 z "},"³":{"ha":557,"x_min":28,"x_max":529,"o":"m 289 465 q 28 638 28 465 l 28 653 l 208 653 l 208 644 q 220 622 208 626 q 276 618 232 618 q 335 622 324 618 q 346 639 346 625 q 319 657 346 657 l 222 657 l 222 763 l 301 763 q 329 779 329 763 q 318 794 329 790 q 269 799 307 799 q 219 794 231 799 q 208 775 208 789 l 208 771 l 28 771 l 28 775 q 97 898 28 851 q 285 944 165 944 q 452 912 394 944 q 510 822 510 879 q 399 721 510 735 l 399 714 q 529 604 529 697 q 289 465 529 465 z "},"¶":{"ha":1101,"x_min":28,"x_max":1060,"o":"m 742 0 l 481 0 l 481 375 l 383 375 q 124 444 219 375 q 28 650 28 514 q 124 860 28 789 q 383 931 219 931 l 742 931 l 742 0 m 1060 0 l 799 0 l 799 931 l 1060 931 l 1060 0 z "},"·":{"ha":422,"x_min":42,"x_max":381,"o":"m 381 347 l 42 347 l 42 614 l 381 614 l 381 347 z "},"¹":{"ha":358,"x_min":14,"x_max":331,"o":"m 331 465 l 150 465 l 150 733 l 14 733 l 14 874 l 39 874 q 158 931 121 874 l 331 931 l 331 465 z "},"º":{"ha":306,"x_min":28,"x_max":278,"o":"m 244 756 q 228 742 244 756 q 153 728 211 728 q 61 756 94 728 q 28 836 28 785 q 61 916 28 888 q 153 944 94 944 q 244 916 211 944 q 278 836 278 888 q 244 756 278 785 m 124 813 q 128 809 124 813 q 153 806 132 806 q 182 813 174 806 q 190 836 190 819 q 182 860 190 853 q 153 867 174 867 q 124 860 132 867 q 115 836 115 853 q 124 813 115 819 z "},"»":{"ha":694,"x_min":42,"x_max":653,"o":"m 319 278 l 42 97 l 42 364 l 146 414 l 146 433 l 42 483 l 42 750 l 319 569 l 319 278 m 653 278 l 375 97 l 375 364 l 479 414 l 479 433 l 375 483 l 375 750 l 653 569 l 653 278 z "},"¼":{"ha":1174,"x_min":42,"x_max":1132,"o":"m 374 465 l 193 465 l 193 733 l 57 733 l 57 874 l 82 874 q 201 931 164 874 l 374 931 l 374 465 m 293 0 l 42 0 l 832 931 l 1083 931 l 293 0 m 1056 0 l 875 0 l 875 88 l 613 88 l 613 231 l 840 465 l 1056 465 l 1056 247 l 1132 247 l 1132 88 l 1056 88 l 1056 0 m 810 247 l 875 247 l 875 315 l 861 315 l 810 261 l 810 247 z "},"½":{"ha":1214,"x_min":42,"x_max":1172,"o":"m 374 465 l 193 465 l 193 733 l 57 733 l 57 874 l 82 874 q 201 931 164 874 l 374 931 l 374 465 m 293 0 l 42 0 l 832 931 l 1083 931 l 293 0 m 1157 0 l 694 0 l 694 75 q 815 228 694 190 l 961 272 q 985 283 979 278 q 990 297 990 288 q 980 314 990 310 q 932 318 969 318 q 879 310 893 318 q 865 279 865 303 l 865 265 l 686 265 l 686 286 q 752 419 686 365 q 944 472 818 472 q 1114 428 1056 472 q 1172 310 1172 385 q 1135 217 1172 250 q 1013 167 1097 183 l 868 136 l 869 131 l 869 125 l 1090 153 l 1157 153 l 1157 0 z "},"¾":{"ha":1268,"x_min":42,"x_max":1226,"o":"m 303 465 q 42 638 42 465 l 42 653 l 222 653 l 222 644 q 234 622 222 626 q 290 618 246 618 q 349 622 338 618 q 360 639 360 625 q 333 657 360 657 l 236 657 l 236 763 l 315 763 q 343 779 343 763 q 332 794 343 790 q 283 799 321 799 q 233 794 244 799 q 222 775 222 789 l 222 771 l 42 771 l 42 775 q 110 898 42 851 q 299 944 179 944 q 466 912 408 944 q 524 822 524 879 q 413 721 524 735 l 413 714 q 543 604 543 697 q 303 465 543 465 m 399 0 l 147 0 l 938 931 l 1189 931 l 399 0 m 1150 0 l 969 0 l 969 88 l 707 88 l 707 231 l 935 465 l 1150 465 l 1150 247 l 1226 247 l 1226 88 l 1150 88 l 1150 0 m 904 247 l 969 247 l 969 315 l 956 315 l 904 261 l 904 247 z "},"¿":{"ha":906,"x_min":28,"x_max":892,"o":"m 357 694 l 656 694 l 656 449 l 357 449 l 357 694 m 376 385 l 638 385 l 638 333 q 590 210 638 254 q 463 138 543 167 l 365 101 q 306 74 322 86 q 289 39 289 61 q 297 13 289 22 q 342 -5 306 3 q 447 -12 379 -12 q 594 10 554 -12 q 635 83 635 32 l 635 150 l 892 150 l 892 108 q 778 -149 892 -47 q 428 -250 665 -250 q 125 -173 222 -250 q 28 29 28 -96 q 59 152 28 100 q 127 227 90 204 q 217 271 164 250 l 321 310 q 366 338 356 324 q 376 378 376 353 l 376 385 z "},"À":{"ha":1150,"x_min":-14,"x_max":1164,"o":"m 717 1014 l 436 1014 l 156 1200 l 532 1200 l 717 1014 m 279 0 l -14 0 l 388 931 l 761 931 l 1164 0 l 864 0 l 793 172 l 351 172 l 279 0 m 504 538 l 450 407 l 697 407 l 643 538 l 582 694 l 564 694 l 504 538 z "},"Á":{"ha":1150,"x_min":-14,"x_max":1164,"o":"m 714 1014 l 433 1014 l 618 1200 l 994 1200 l 714 1014 m 279 0 l -14 0 l 388 931 l 761 931 l 1164 0 l 864 0 l 793 172 l 351 172 l 279 0 m 504 538 l 450 407 l 697 407 l 643 538 l 582 694 l 564 694 l 504 538 z "},"Â":{"ha":1150,"x_min":-14,"x_max":1164,"o":"m 511 1014 l 232 1014 l 417 1194 l 732 1194 l 918 1014 l 638 1014 l 583 1072 l 567 1072 l 511 1014 m 279 0 l -14 0 l 388 931 l 761 931 l 1164 0 l 864 0 l 793 172 l 351 172 l 279 0 m 504 538 l 450 407 l 697 407 l 643 538 l 582 694 l 564 694 l 504 538 z "},"Ã":{"ha":1150,"x_min":-14,"x_max":1164,"o":"m 463 989 l 289 989 l 289 1058 q 433 1215 289 1215 q 556 1189 481 1215 l 603 1172 q 658 1158 642 1158 q 689 1193 689 1158 l 689 1203 l 861 1203 l 861 1135 q 828 1019 861 1063 q 728 976 796 976 q 601 1003 678 976 l 538 1024 q 486 1036 503 1036 q 463 1011 463 1036 l 463 989 m 279 0 l -14 0 l 388 931 l 761 931 l 1164 0 l 864 0 l 793 172 l 351 172 l 279 0 m 504 538 l 450 407 l 697 407 l 643 538 l 582 694 l 564 694 l 504 538 z "},"Ä":{"ha":1150,"x_min":-14,"x_max":1164,"o":"m 863 1014 l 615 1014 l 615 1207 l 863 1207 l 863 1014 m 535 1014 l 288 1014 l 288 1207 l 535 1207 l 535 1014 m 279 0 l -14 0 l 388 931 l 761 931 l 1164 0 l 864 0 l 793 172 l 351 172 l 279 0 m 504 538 l 450 407 l 697 407 l 643 538 l 582 694 l 564 694 l 504 538 z "},"Å":{"ha":1150,"x_min":-14,"x_max":1164,"o":"m 279 0 l -14 0 l 375 901 q 343 1011 343 949 q 406 1157 343 1103 q 574 1211 469 1211 q 740 1157 676 1211 q 803 1011 803 1103 q 772 904 803 950 l 1164 0 l 864 0 l 793 172 l 351 172 l 279 0 m 514 974 q 521 969 514 974 q 572 964 528 964 q 631 974 617 964 q 644 1011 644 983 q 631 1049 644 1039 q 572 1058 617 1058 q 514 1049 528 1058 q 500 1011 500 1039 q 514 974 500 983 m 504 538 l 450 407 l 697 407 l 643 538 l 582 694 l 564 694 l 504 538 z "},"Æ":{"ha":1689,"x_min":-11,"x_max":1657,"o":"m 313 0 l -11 0 l 663 931 l 1657 931 l 1657 696 l 1092 696 l 1092 585 l 1636 585 l 1636 351 l 1092 351 l 1092 235 l 1657 235 l 1657 0 l 831 0 l 831 172 l 435 172 l 313 0 m 817 711 l 601 407 l 831 407 l 831 711 l 817 711 z "},"Ç":{"ha":1069,"x_min":28,"x_max":1042,"o":"m 608 -335 l 457 -335 l 457 -200 l 613 -200 q 624 -192 624 -200 q 613 -182 624 -182 l 457 -182 l 457 -10 q 141 140 254 13 q 28 465 28 267 q 165 815 28 685 q 542 944 301 944 q 909 839 776 944 q 1042 547 1042 733 l 1042 524 l 750 524 l 750 547 q 705 661 750 628 q 546 694 660 694 q 354 649 403 694 q 306 465 306 603 q 354 282 306 328 q 546 236 403 236 q 705 269 660 236 q 750 383 750 303 l 750 407 l 1042 407 l 1042 383 q 922 103 1042 207 q 589 -12 803 -1 l 589 -50 l 608 -50 q 728 -87 686 -50 q 769 -190 769 -125 q 728 -296 769 -257 q 608 -335 686 -335 z "},"È":{"ha":900,"x_min":35,"x_max":868,"o":"m 596 1014 l 315 1014 l 35 1200 l 411 1200 l 596 1014 m 868 0 l 42 0 l 42 931 l 868 931 l 868 696 l 303 696 l 303 585 l 847 585 l 847 351 l 303 351 l 303 235 l 868 235 l 868 0 z "},"É":{"ha":900,"x_min":42,"x_max":874,"o":"m 593 1014 l 313 1014 l 497 1200 l 874 1200 l 593 1014 m 868 0 l 42 0 l 42 931 l 868 931 l 868 696 l 303 696 l 303 585 l 847 585 l 847 351 l 303 351 l 303 235 l 868 235 l 868 0 z "},"Ê":{"ha":900,"x_min":42,"x_max":868,"o":"m 390 1014 l 111 1014 l 296 1194 l 611 1194 l 797 1014 l 517 1014 l 463 1072 l 446 1072 l 390 1014 m 868 0 l 42 0 l 42 931 l 868 931 l 868 696 l 303 696 l 303 585 l 847 585 l 847 351 l 303 351 l 303 235 l 868 235 l 868 0 z "},"Ë":{"ha":900,"x_min":42,"x_max":868,"o":"m 742 1014 l 494 1014 l 494 1207 l 742 1207 l 742 1014 m 414 1014 l 167 1014 l 167 1207 l 414 1207 l 414 1014 m 868 0 l 42 0 l 42 931 l 868 931 l 868 696 l 303 696 l 303 585 l 847 585 l 847 351 l 303 351 l 303 235 l 868 235 l 868 0 z "},"Ì":{"ha":344,"x_min":-247,"x_max":314,"o":"m 314 1014 l 33 1014 l -247 1200 l 129 1200 l 314 1014 m 303 0 l 42 0 l 42 931 l 303 931 l 303 0 z "},"Í":{"ha":344,"x_min":31,"x_max":592,"o":"m 311 1014 l 31 1014 l 215 1200 l 592 1200 l 311 1014 m 303 0 l 42 0 l 42 931 l 303 931 l 303 0 z "},"Î":{"ha":344,"x_min":-171,"x_max":515,"o":"m 108 1014 l -171 1014 l 14 1194 l 329 1194 l 515 1014 l 235 1014 l 181 1072 l 164 1072 l 108 1014 m 303 0 l 42 0 l 42 931 l 303 931 l 303 0 z "},"Ï":{"ha":344,"x_min":-115,"x_max":460,"o":"m 460 1014 l 213 1014 l 213 1207 l 460 1207 l 460 1014 m 132 1014 l -115 1014 l -115 1207 l 132 1207 l 132 1014 m 303 0 l 42 0 l 42 931 l 303 931 l 303 0 z "},"Ð":{"ha":1158,"x_min":14,"x_max":1131,"o":"m 629 0 l 158 0 l 158 349 l 14 349 l 14 582 l 158 582 l 158 931 l 629 931 q 996 808 861 931 q 1131 465 1131 685 q 996 123 1131 246 q 629 0 861 0 m 672 349 l 419 349 l 419 235 l 629 235 q 735 241 699 235 q 801 271 772 247 q 841 340 831 294 q 851 465 851 386 q 841 590 851 544 q 801 660 831 636 q 735 690 772 683 q 629 696 699 696 l 419 696 l 419 582 l 672 582 l 672 349 z "},"Ñ":{"ha":1022,"x_min":42,"x_max":981,"o":"m 399 989 l 225 989 l 225 1058 q 369 1215 225 1215 q 492 1189 417 1215 l 539 1172 q 594 1158 578 1158 q 625 1193 625 1158 l 625 1203 l 797 1203 l 797 1135 q 765 1019 797 1063 q 664 976 732 976 q 538 1003 614 976 l 474 1024 q 422 1036 439 1036 q 399 1011 399 1036 l 399 989 m 303 0 l 42 0 l 42 931 l 319 931 l 578 582 l 714 368 l 732 368 l 719 571 l 719 931 l 981 931 l 981 0 l 703 0 l 428 358 l 310 542 l 292 542 l 303 364 l 303 0 z "},"Ò":{"ha":1092,"x_min":28,"x_max":1064,"o":"m 688 1014 l 407 1014 l 126 1200 l 503 1200 l 688 1014 m 543 -14 q 165 116 303 -14 q 28 465 28 246 q 165 815 28 685 q 543 944 303 944 q 926 815 789 944 q 1064 465 1064 686 q 926 115 1064 244 q 543 -14 789 -14 m 543 236 q 736 282 686 236 q 786 465 786 328 q 736 649 786 603 q 543 694 686 694 q 353 649 401 694 q 306 465 306 603 q 353 282 306 328 q 543 236 401 236 z "},"Ó":{"ha":1092,"x_min":28,"x_max":1064,"o":"m 685 1014 l 404 1014 l 589 1200 l 965 1200 l 685 1014 m 543 -14 q 165 116 303 -14 q 28 465 28 246 q 165 815 28 685 q 543 944 303 944 q 926 815 789 944 q 1064 465 1064 686 q 926 115 1064 244 q 543 -14 789 -14 m 543 236 q 736 282 686 236 q 786 465 786 328 q 736 649 786 603 q 543 694 686 694 q 353 649 401 694 q 306 465 306 603 q 353 282 306 328 q 543 236 401 236 z "},"Ô":{"ha":1092,"x_min":28,"x_max":1064,"o":"m 482 1014 l 203 1014 l 388 1194 l 703 1194 l 889 1014 l 608 1014 l 554 1072 l 538 1072 l 482 1014 m 543 -14 q 165 116 303 -14 q 28 465 28 246 q 165 815 28 685 q 543 944 303 944 q 926 815 789 944 q 1064 465 1064 686 q 926 115 1064 244 q 543 -14 789 -14 m 543 236 q 736 282 686 236 q 786 465 786 328 q 736 649 786 603 q 543 694 686 694 q 353 649 401 694 q 306 465 306 603 q 353 282 306 328 q 543 236 401 236 z "},"Õ":{"ha":1092,"x_min":28,"x_max":1064,"o":"m 433 989 l 260 989 l 260 1058 q 404 1215 260 1215 q 526 1189 451 1215 l 574 1172 q 629 1158 613 1158 q 660 1193 660 1158 l 660 1203 l 832 1203 l 832 1135 q 799 1019 832 1063 q 699 976 767 976 q 572 1003 649 976 l 508 1024 q 457 1036 472 1036 q 433 1011 433 1036 l 433 989 m 543 -14 q 165 116 303 -14 q 28 465 28 246 q 165 815 28 685 q 543 944 303 944 q 926 815 789 944 q 1064 465 1064 686 q 926 115 1064 244 q 543 -14 789 -14 m 543 236 q 736 282 686 236 q 786 465 786 328 q 736 649 786 603 q 543 694 686 694 q 353 649 401 694 q 306 465 306 603 q 353 282 306 328 q 543 236 401 236 z "},"Ö":{"ha":1092,"x_min":28,"x_max":1064,"o":"m 833 1014 l 586 1014 l 586 1207 l 833 1207 l 833 1014 m 506 1014 l 258 1014 l 258 1207 l 506 1207 l 506 1014 m 543 -14 q 165 116 303 -14 q 28 465 28 246 q 165 815 28 685 q 543 944 303 944 q 926 815 789 944 q 1064 465 1064 686 q 926 115 1064 244 q 543 -14 789 -14 m 543 236 q 736 282 686 236 q 786 465 786 328 q 736 649 786 603 q 543 694 686 694 q 353 649 401 694 q 306 465 306 603 q 353 282 306 328 q 543 236 401 236 z "},"×":{"ha":725,"x_min":42,"x_max":683,"o":"m 683 301 l 526 144 l 360 311 l 194 146 l 43 297 l 208 463 l 42 629 l 197 786 l 365 619 l 531 785 l 682 633 l 517 468 l 683 301 z "},"Ø":{"ha":1092,"x_min":-1,"x_max":1093,"o":"m 543 -14 q 228 68 356 -14 l 121 -25 l -1 107 l 100 194 q 28 465 28 310 q 165 815 28 685 q 543 944 303 944 q 865 863 736 944 l 971 954 l 1093 822 l 993 735 q 1064 465 1064 621 q 926 115 1064 244 q 543 -14 789 -14 m 306 465 q 311 379 306 413 l 661 685 q 543 694 617 694 q 353 649 401 694 q 306 465 306 603 m 543 236 q 736 282 686 236 q 786 465 786 328 q 781 550 786 518 l 431 244 q 543 236 476 236 z "},"Ù":{"ha":1022,"x_min":36,"x_max":986,"o":"m 653 1014 l 372 1014 l 92 1200 l 468 1200 l 653 1014 m 867 92 q 808 39 867 92 q 511 -14 749 -14 q 155 92 274 -14 q 36 390 36 199 l 36 931 l 297 931 l 297 411 q 340 274 297 310 q 511 239 382 239 q 683 274 640 239 q 725 411 725 310 l 725 931 l 986 931 l 986 390 q 867 92 986 199 z "},"Ú":{"ha":1022,"x_min":36,"x_max":986,"o":"m 650 1014 l 369 1014 l 554 1200 l 931 1200 l 650 1014 m 867 92 q 808 39 867 92 q 511 -14 749 -14 q 155 92 274 -14 q 36 390 36 199 l 36 931 l 297 931 l 297 411 q 340 274 297 310 q 511 239 382 239 q 683 274 640 239 q 725 411 725 310 l 725 931 l 986 931 l 986 390 q 867 92 986 199 z "},"Û":{"ha":1022,"x_min":36,"x_max":986,"o":"m 447 1014 l 168 1014 l 353 1194 l 668 1194 l 854 1014 l 574 1014 l 519 1072 l 503 1072 l 447 1014 m 867 92 q 808 39 867 92 q 511 -14 749 -14 q 155 92 274 -14 q 36 390 36 199 l 36 931 l 297 931 l 297 411 q 340 274 297 310 q 511 239 382 239 q 683 274 640 239 q 725 411 725 310 l 725 931 l 986 931 l 986 390 q 867 92 986 199 z "},"Ü":{"ha":1022,"x_min":36,"x_max":986,"o":"m 799 1014 l 551 1014 l 551 1207 l 799 1207 l 799 1014 m 471 1014 l 224 1014 l 224 1207 l 471 1207 l 471 1014 m 867 92 q 808 39 867 92 q 511 -14 749 -14 q 155 92 274 -14 q 36 390 36 199 l 36 931 l 297 931 l 297 411 q 340 274 297 310 q 511 239 382 239 q 683 274 640 239 q 725 411 725 310 l 725 931 l 986 931 l 986 390 q 867 92 986 199 z "},"Ý":{"ha":1064,"x_min":-21,"x_max":1085,"o":"m 671 1014 l 390 1014 l 575 1200 l 951 1200 l 671 1014 m 658 0 l 397 0 l 397 296 l -21 931 l 303 931 l 443 710 l 522 579 l 540 579 l 619 710 l 760 931 l 1085 931 l 658 294 l 658 0 z "},"Þ":{"ha":944,"x_min":42,"x_max":931,"o":"m 303 0 l 42 0 l 42 931 l 303 931 l 303 818 l 571 818 q 834 726 738 818 q 931 467 931 633 q 834 207 931 300 q 571 114 738 114 l 303 114 l 303 0 m 542 583 l 303 583 l 303 349 l 542 349 q 642 372 614 349 q 671 467 671 394 q 642 560 671 538 q 542 583 614 583 z "},"ß":{"ha":992,"x_min":69,"x_max":978,"o":"m 326 0 l 69 0 l 69 585 q 182 850 69 756 q 531 944 294 944 q 832 876 729 944 q 935 697 935 808 q 703 494 935 504 l 703 481 q 908 413 839 475 q 978 244 978 350 q 665 0 978 0 l 382 0 l 382 235 l 632 235 q 697 248 679 235 q 714 300 714 261 q 697 351 714 339 q 632 364 681 364 l 382 364 l 382 578 l 606 578 q 660 588 646 578 q 674 629 674 599 q 643 681 674 667 q 513 696 613 696 q 388 685 428 696 q 338 653 349 674 q 326 588 326 632 l 326 0 z "},"à":{"ha":826,"x_min":-11,"x_max":790,"o":"m 551 778 l 269 778 l -11 958 l 367 958 l 551 778 m 268 -14 q 85 37 150 -14 q 21 178 21 88 q 247 363 21 340 l 532 390 l 532 404 q 506 471 532 456 q 408 486 481 486 q 319 470 343 486 q 296 411 296 454 l 296 406 l 35 406 l 35 408 q 142 631 35 547 q 428 714 250 714 q 699 631 607 714 q 790 399 790 549 l 790 0 l 546 0 l 546 147 l 532 147 q 268 -14 489 -14 m 283 194 q 346 168 283 168 q 485 184 444 168 q 531 246 525 200 l 317 221 q 283 194 283 217 z "},"á":{"ha":826,"x_min":21,"x_max":836,"o":"m 556 778 l 272 778 l 458 958 l 836 958 l 556 778 m 268 -14 q 85 37 150 -14 q 21 178 21 88 q 247 363 21 340 l 532 390 l 532 404 q 506 471 532 456 q 408 486 481 486 q 319 470 343 486 q 296 411 296 454 l 296 406 l 35 406 l 35 408 q 142 631 35 547 q 428 714 250 714 q 699 631 607 714 q 790 399 790 549 l 790 0 l 546 0 l 546 147 l 532 147 q 268 -14 489 -14 m 283 194 q 346 168 283 168 q 485 184 444 168 q 531 246 525 200 l 317 221 q 283 194 283 217 z "},"â":{"ha":826,"x_min":21,"x_max":790,"o":"m 350 778 l 71 778 l 256 958 l 571 958 l 757 778 l 476 778 l 422 836 l 406 836 l 350 778 m 268 -14 q 85 37 150 -14 q 21 178 21 88 q 247 363 21 340 l 532 390 l 532 404 q 506 471 532 456 q 408 486 481 486 q 319 470 343 486 q 296 411 296 454 l 296 406 l 35 406 l 35 408 q 142 631 35 547 q 428 714 250 714 q 699 631 607 714 q 790 399 790 549 l 790 0 l 546 0 l 546 147 l 532 147 q 268 -14 489 -14 m 283 194 q 346 168 283 168 q 485 184 444 168 q 531 246 525 200 l 317 221 q 283 194 283 217 z "},"ã":{"ha":826,"x_min":21,"x_max":790,"o":"m 301 753 l 128 753 l 128 822 q 272 979 128 979 q 394 953 319 979 l 442 936 q 497 922 481 922 q 528 957 528 922 l 528 967 l 700 967 l 700 899 q 667 783 700 826 q 567 740 635 740 q 440 767 517 740 l 376 788 q 325 800 342 800 q 301 775 301 800 l 301 753 m 268 -14 q 85 37 150 -14 q 21 178 21 88 q 247 363 21 340 l 532 390 l 532 404 q 506 471 532 456 q 408 486 481 486 q 319 470 343 486 q 296 411 296 454 l 296 406 l 35 406 l 35 408 q 142 631 35 547 q 428 714 250 714 q 699 631 607 714 q 790 399 790 549 l 790 0 l 546 0 l 546 147 l 532 147 q 268 -14 489 -14 m 283 194 q 346 168 283 168 q 485 184 444 168 q 531 246 525 200 l 317 221 q 283 194 283 217 z "},"ä":{"ha":826,"x_min":21,"x_max":790,"o":"m 701 778 l 454 778 l 454 971 l 701 971 l 701 778 m 374 778 l 126 778 l 126 971 l 374 971 l 374 778 m 268 -14 q 85 37 150 -14 q 21 178 21 88 q 247 363 21 340 l 532 390 l 532 404 q 506 471 532 456 q 408 486 481 486 q 319 470 343 486 q 296 411 296 454 l 296 406 l 35 406 l 35 408 q 142 631 35 547 q 428 714 250 714 q 699 631 607 714 q 790 399 790 549 l 790 0 l 546 0 l 546 147 l 532 147 q 268 -14 489 -14 m 283 194 q 346 168 283 168 q 485 184 444 168 q 531 246 525 200 l 317 221 q 283 194 283 217 z "},"å":{"ha":826,"x_min":21,"x_max":790,"o":"m 520 789 q 500 772 520 789 q 414 756 479 756 q 308 789 349 756 q 267 878 267 822 q 308 967 267 933 q 414 1000 349 1000 q 520 967 479 1000 q 561 878 561 933 q 520 789 561 822 m 381 860 q 385 857 381 860 q 414 854 389 854 q 447 860 439 854 q 454 878 454 865 q 447 896 454 890 q 414 901 439 901 q 381 896 389 901 q 374 878 374 890 q 381 860 374 865 m 268 -14 q 85 37 150 -14 q 21 178 21 88 q 247 363 21 340 l 532 390 l 532 404 q 506 471 532 456 q 408 486 481 486 q 319 470 343 486 q 296 411 296 454 l 296 406 l 35 406 l 35 408 q 142 631 35 547 q 428 714 250 714 q 699 631 607 714 q 790 399 790 549 l 790 0 l 546 0 l 546 147 l 532 147 q 268 -14 489 -14 m 283 194 q 346 168 283 168 q 485 184 444 168 q 531 246 525 200 l 317 221 q 283 194 283 217 z "},"æ":{"ha":1356,"x_min":21,"x_max":1343,"o":"m 476 28 q 438 7 476 28 q 276 -14 399 -14 q 88 37 154 -14 q 21 178 21 88 q 247 367 21 344 l 549 396 l 549 404 q 523 471 549 456 q 424 486 497 486 q 323 470 350 486 q 296 411 296 454 l 296 399 l 35 399 l 35 408 q 142 631 35 547 q 428 714 250 714 q 689 640 596 714 q 947 714 794 714 q 1238 624 1132 714 q 1343 368 1343 535 q 1339 301 1343 339 l 790 301 q 826 216 793 239 q 943 193 858 193 q 1048 207 1019 193 q 1076 253 1076 221 l 1076 268 l 1338 268 l 1338 251 q 1233 60 1338 133 q 953 -14 1128 -14 q 596 147 688 -14 l 581 147 q 476 28 554 71 m 942 514 q 836 496 869 514 q 794 433 803 478 l 1090 433 q 1049 496 1083 478 q 942 514 1015 514 m 283 194 q 346 168 283 168 q 500 185 453 168 q 557 247 547 201 l 317 221 q 283 194 283 217 z "},"ç":{"ha":854,"x_min":28,"x_max":826,"o":"m 508 -335 l 357 -335 l 357 -200 l 513 -200 q 524 -192 524 -200 q 513 -182 524 -182 l 357 -182 l 357 -10 q 116 105 204 10 q 28 350 28 200 q 138 617 28 519 q 435 714 247 714 q 720 629 614 714 q 826 404 826 544 l 826 382 l 567 382 l 567 393 q 533 463 567 444 q 429 481 499 481 q 320 454 353 481 q 288 350 288 428 q 320 247 288 272 q 429 221 353 221 q 533 238 499 221 q 567 307 567 256 l 567 319 l 826 319 l 826 296 q 735 84 826 167 q 489 -11 644 1 l 489 -50 l 508 -50 q 628 -87 586 -50 q 669 -190 669 -125 q 628 -296 669 -257 q 508 -335 586 -335 z "},"è":{"ha":850,"x_min":0,"x_max":822,"o":"m 563 778 l 281 778 l 0 958 l 378 958 l 563 778 m 432 -14 q 135 74 243 -14 q 28 350 28 161 q 138 616 28 518 q 426 714 249 714 q 717 624 611 714 q 822 368 822 535 q 818 301 822 339 l 269 301 q 305 216 272 239 q 422 193 338 193 q 527 207 499 193 q 556 253 556 221 l 556 268 l 817 268 l 817 251 q 712 60 817 133 q 432 -14 607 -14 m 421 514 q 315 496 349 514 q 274 433 282 478 l 569 433 q 528 496 563 478 q 421 514 494 514 z "},"é":{"ha":850,"x_min":28,"x_max":847,"o":"m 567 778 l 283 778 l 469 958 l 847 958 l 567 778 m 432 -14 q 135 74 243 -14 q 28 350 28 161 q 138 616 28 518 q 426 714 249 714 q 717 624 611 714 q 822 368 822 535 q 818 301 822 339 l 269 301 q 305 216 272 239 q 422 193 338 193 q 527 207 499 193 q 556 253 556 221 l 556 268 l 817 268 l 817 251 q 712 60 817 133 q 432 -14 607 -14 m 421 514 q 315 496 349 514 q 274 433 282 478 l 569 433 q 528 496 563 478 q 421 514 494 514 z "},"ê":{"ha":850,"x_min":28,"x_max":822,"o":"m 361 778 l 82 778 l 267 958 l 582 958 l 768 778 l 488 778 l 433 836 l 417 836 l 361 778 m 432 -14 q 135 74 243 -14 q 28 350 28 161 q 138 616 28 518 q 426 714 249 714 q 717 624 611 714 q 822 368 822 535 q 818 301 822 339 l 269 301 q 305 216 272 239 q 422 193 338 193 q 527 207 499 193 q 556 253 556 221 l 556 268 l 817 268 l 817 251 q 712 60 817 133 q 432 -14 607 -14 m 421 514 q 315 496 349 514 q 274 433 282 478 l 569 433 q 528 496 563 478 q 421 514 494 514 z "},"ë":{"ha":850,"x_min":28,"x_max":822,"o":"m 713 778 l 465 778 l 465 971 l 713 971 l 713 778 m 385 778 l 138 778 l 138 971 l 385 971 l 385 778 m 432 -14 q 135 74 243 -14 q 28 350 28 161 q 138 616 28 518 q 426 714 249 714 q 717 624 611 714 q 822 368 822 535 q 818 301 822 339 l 269 301 q 305 216 272 239 q 422 193 338 193 q 527 207 499 193 q 556 253 556 221 l 556 268 l 817 268 l 817 251 q 712 60 817 133 q 432 -14 607 -14 m 421 514 q 315 496 349 514 q 274 433 282 478 l 569 433 q 528 496 563 478 q 421 514 494 514 z "},"ì":{"ha":388,"x_min":-231,"x_max":332,"o":"m 332 778 l 50 778 l -231 958 l 147 958 l 332 778 m 324 0 l 64 0 l 64 694 l 324 694 l 324 0 z "},"í":{"ha":388,"x_min":53,"x_max":617,"o":"m 336 778 l 53 778 l 239 958 l 617 958 l 336 778 m 324 0 l 64 0 l 64 694 l 324 694 l 324 0 z "},"î":{"ha":388,"x_min":-149,"x_max":538,"o":"m 131 778 l -149 778 l 36 958 l 351 958 l 538 778 l 257 778 l 203 836 l 186 836 l 131 778 m 324 0 l 64 0 l 64 694 l 324 694 l 324 0 z "},"ï":{"ha":388,"x_min":-93,"x_max":482,"o":"m 482 778 l 235 778 l 235 971 l 482 971 l 482 778 m 154 778 l -93 778 l -93 971 l 154 971 l 154 778 m 324 0 l 64 0 l 64 694 l 324 694 l 324 0 z "},"ð":{"ha":972,"x_min":28,"x_max":944,"o":"m 457 -14 q 136 76 244 -14 q 28 325 28 167 q 117 549 28 475 q 368 624 207 624 q 644 468 588 624 l 661 468 q 529 707 651 575 l 296 667 l 272 782 l 422 808 q 261 931 349 869 l 614 931 q 718 860 672 897 l 897 890 l 921 775 l 817 757 q 944 382 944 592 q 821 90 944 193 q 457 -14 697 -14 m 472 240 q 623 256 586 240 q 660 321 660 272 q 625 392 660 375 q 472 408 590 408 q 330 392 364 408 q 296 322 296 375 q 332 257 296 274 q 472 240 368 240 z "},"ñ":{"ha":893,"x_min":42,"x_max":857,"o":"m 336 753 l 163 753 l 163 822 q 307 979 163 979 q 429 953 354 979 l 476 936 q 532 922 515 922 q 563 957 563 922 l 563 967 l 735 967 l 735 899 q 702 783 735 826 q 601 740 669 740 q 475 767 551 740 l 411 788 q 360 800 375 800 q 336 775 336 800 l 336 753 m 303 0 l 42 0 l 42 700 l 286 700 l 286 488 l 300 488 q 381 650 313 586 q 579 714 449 714 q 786 641 715 714 q 857 449 857 568 l 857 0 l 596 0 l 596 353 q 564 453 596 425 q 446 481 532 481 q 332 456 361 481 q 303 361 303 431 l 303 0 z "},"ò":{"ha":858,"x_min":4,"x_max":838,"o":"m 567 778 l 285 778 l 4 958 l 382 958 l 567 778 m 726 84 q 670 35 726 84 q 429 -14 614 -14 q 133 84 244 -14 q 21 350 21 182 q 133 617 21 519 q 429 714 244 714 q 726 617 614 714 q 838 350 838 519 q 726 84 838 182 m 310 245 q 326 231 310 245 q 429 217 342 217 q 548 245 517 217 q 579 350 579 274 q 548 456 579 426 q 429 485 517 485 q 310 456 342 485 q 279 350 279 426 q 310 245 279 274 z "},"ó":{"ha":858,"x_min":21,"x_max":851,"o":"m 571 778 l 288 778 l 474 958 l 851 958 l 571 778 m 726 84 q 670 35 726 84 q 429 -14 614 -14 q 133 84 244 -14 q 21 350 21 182 q 133 617 21 519 q 429 714 244 714 q 726 617 614 714 q 838 350 838 519 q 726 84 838 182 m 310 245 q 326 231 310 245 q 429 217 342 217 q 548 245 517 217 q 579 350 579 274 q 548 456 579 426 q 429 485 517 485 q 310 456 342 485 q 279 350 279 426 q 310 245 279 274 z "},"ô":{"ha":858,"x_min":21,"x_max":838,"o":"m 365 778 l 86 778 l 271 958 l 586 958 l 772 778 l 492 778 l 438 836 l 421 836 l 365 778 m 726 84 q 670 35 726 84 q 429 -14 614 -14 q 133 84 244 -14 q 21 350 21 182 q 133 617 21 519 q 429 714 244 714 q 726 617 614 714 q 838 350 838 519 q 726 84 838 182 m 310 245 q 326 231 310 245 q 429 217 342 217 q 548 245 517 217 q 579 350 579 274 q 548 456 579 426 q 429 485 517 485 q 310 456 342 485 q 279 350 279 426 q 310 245 279 274 z "},"õ":{"ha":858,"x_min":21,"x_max":838,"o":"m 317 753 l 143 753 l 143 822 q 288 979 143 979 q 410 953 335 979 l 457 936 q 513 922 496 922 q 543 957 543 922 l 543 967 l 715 967 l 715 899 q 683 783 715 826 q 582 740 650 740 q 456 767 532 740 l 392 788 q 340 800 356 800 q 317 775 317 800 l 317 753 m 726 84 q 670 35 726 84 q 429 -14 614 -14 q 133 84 244 -14 q 21 350 21 182 q 133 617 21 519 q 429 714 244 714 q 726 617 614 714 q 838 350 838 519 q 726 84 838 182 m 310 245 q 326 231 310 245 q 429 217 342 217 q 548 245 517 217 q 579 350 579 274 q 548 456 579 426 q 429 485 517 485 q 310 456 342 485 q 279 350 279 426 q 310 245 279 274 z "},"ö":{"ha":858,"x_min":21,"x_max":838,"o":"m 717 778 l 469 778 l 469 971 l 717 971 l 717 778 m 389 778 l 142 778 l 142 971 l 389 971 l 389 778 m 726 84 q 670 35 726 84 q 429 -14 614 -14 q 133 84 244 -14 q 21 350 21 182 q 133 617 21 519 q 429 714 244 714 q 726 617 614 714 q 838 350 838 519 q 726 84 838 182 m 310 245 q 326 231 310 245 q 429 217 342 217 q 548 245 517 217 q 579 350 579 274 q 548 456 579 426 q 429 485 517 485 q 310 456 342 485 q 279 350 279 426 q 310 245 279 274 z "},"÷":{"ha":742,"x_min":47,"x_max":706,"o":"m 515 656 l 239 656 l 239 888 l 515 888 l 515 656 m 706 358 l 47 358 l 47 572 l 706 572 l 706 358 m 515 43 l 239 43 l 239 275 l 515 275 l 515 43 z "},"ø":{"ha":858,"x_min":6,"x_max":851,"o":"m 429 -14 q 185 47 283 -14 l 97 -29 l 6 72 l 83 140 q 21 350 21 226 q 133 617 21 519 q 429 714 244 714 q 674 654 571 714 l 760 729 l 851 628 l 775 561 q 838 350 838 472 q 726 84 838 182 q 429 -14 614 -14 m 279 350 q 281 313 279 324 l 476 482 q 429 485 449 485 q 310 456 342 485 q 279 350 279 426 m 429 217 q 548 245 517 217 q 579 350 579 274 q 578 389 579 378 l 382 219 q 429 217 410 217 z "},"ù":{"ha":907,"x_min":31,"x_max":871,"o":"m 593 778 l 311 778 l 31 958 l 408 958 l 593 778 m 329 -14 q 115 59 188 -14 q 42 251 42 132 l 42 700 l 303 700 l 303 347 q 337 247 303 274 q 460 219 371 219 q 579 244 549 219 q 610 339 610 269 l 610 700 l 871 700 l 871 0 l 626 0 l 626 213 l 613 213 q 531 50 600 114 q 329 -14 463 -14 z "},"ú":{"ha":907,"x_min":42,"x_max":878,"o":"m 597 778 l 314 778 l 500 958 l 878 958 l 597 778 m 329 -14 q 115 59 188 -14 q 42 251 42 132 l 42 700 l 303 700 l 303 347 q 337 247 303 274 q 460 219 371 219 q 579 244 549 219 q 610 339 610 269 l 610 700 l 871 700 l 871 0 l 626 0 l 626 213 l 613 213 q 531 50 600 114 q 329 -14 463 -14 z "},"û":{"ha":907,"x_min":42,"x_max":871,"o":"m 392 778 l 113 778 l 297 958 l 613 958 l 799 778 l 518 778 l 464 836 l 447 836 l 392 778 m 329 -14 q 115 59 188 -14 q 42 251 42 132 l 42 700 l 303 700 l 303 347 q 337 247 303 274 q 460 219 371 219 q 579 244 549 219 q 610 339 610 269 l 610 700 l 871 700 l 871 0 l 626 0 l 626 213 l 613 213 q 531 50 600 114 q 329 -14 463 -14 z "},"ü":{"ha":907,"x_min":42,"x_max":871,"o":"m 743 778 l 496 778 l 496 971 l 743 971 l 743 778 m 415 778 l 168 778 l 168 971 l 415 971 l 415 778 m 329 -14 q 115 59 188 -14 q 42 251 42 132 l 42 700 l 303 700 l 303 347 q 337 247 303 274 q 460 219 371 219 q 579 244 549 219 q 610 339 610 269 l 610 700 l 871 700 l 871 0 l 626 0 l 626 213 l 613 213 q 531 50 600 114 q 329 -14 463 -14 z "},"ý":{"ha":900,"x_min":-14,"x_max":914,"o":"m 592 778 l 308 778 l 494 958 l 872 958 l 592 778 m 196 -236 l 69 -236 l 69 0 l 272 0 q 321 8 304 0 l -14 700 l 283 700 l 404 425 l 454 264 l 472 264 l 518 428 l 622 700 l 914 700 l 582 -28 q 441 -192 528 -149 q 196 -236 354 -236 z "},"þ":{"ha":929,"x_min":42,"x_max":901,"o":"m 303 -236 l 42 -236 l 42 931 l 303 931 l 303 519 l 317 519 q 581 714 351 714 q 817 618 733 714 q 901 350 901 522 q 817 82 901 178 q 581 -14 733 -14 q 317 181 351 -14 l 303 181 l 303 -236 m 303 342 q 342 247 303 271 q 475 224 382 224 q 601 252 565 224 q 638 350 638 281 q 601 448 638 419 q 475 476 565 476 q 342 453 382 476 q 303 358 303 429 l 303 342 z "},"ÿ":{"ha":900,"x_min":-14,"x_max":914,"o":"m 738 778 l 490 778 l 490 971 l 738 971 l 738 778 m 410 778 l 163 778 l 163 971 l 410 971 l 410 778 m 196 -236 l 69 -236 l 69 0 l 272 0 q 321 8 304 0 l -14 700 l 283 700 l 404 425 l 454 264 l 472 264 l 518 428 l 622 700 l 914 700 l 582 -28 q 441 -192 528 -149 q 196 -236 354 -236 z "},"Ā":{"ha":1150,"x_min":-14,"x_max":1164,"o":"m 821 1015 l 328 1015 l 328 1201 l 821 1201 l 821 1015 m 279 0 l -14 0 l 388 931 l 761 931 l 1164 0 l 864 0 l 793 172 l 351 172 l 279 0 m 504 538 l 450 407 l 697 407 l 643 538 l 582 694 l 564 694 l 504 538 z "},"ā":{"ha":826,"x_min":21,"x_max":790,"o":"m 660 775 l 167 775 l 167 961 l 660 961 l 660 775 m 268 -14 q 85 37 150 -14 q 21 178 21 88 q 247 363 21 340 l 532 390 l 532 404 q 506 471 532 456 q 408 486 481 486 q 319 470 343 486 q 296 411 296 454 l 296 406 l 35 406 l 35 408 q 142 631 35 547 q 428 714 250 714 q 699 631 607 714 q 790 399 790 549 l 790 0 l 546 0 l 546 147 l 532 147 q 268 -14 489 -14 m 283 194 q 346 168 283 168 q 485 184 444 168 q 531 246 525 200 l 317 221 q 283 194 283 217 z "},"Ă":{"ha":1150,"x_min":-14,"x_max":1164,"o":"m 751 1055 q 717 1027 751 1055 q 575 1000 683 1000 q 399 1055 467 1000 q 331 1194 331 1110 l 331 1213 l 513 1213 l 513 1199 q 524 1165 513 1175 q 575 1156 536 1156 q 626 1165 614 1156 q 638 1199 638 1175 l 638 1213 l 819 1213 l 819 1194 q 751 1055 819 1110 m 279 0 l -14 0 l 388 931 l 761 931 l 1164 0 l 864 0 l 793 172 l 351 172 l 279 0 m 504 538 l 450 407 l 697 407 l 643 538 l 582 694 l 564 694 l 504 538 z "},"ă":{"ha":826,"x_min":21,"x_max":790,"o":"m 590 819 q 556 791 590 819 q 414 764 522 764 q 238 819 306 764 q 169 958 169 874 l 169 964 l 351 964 l 351 963 q 363 925 351 935 q 414 915 375 915 q 465 925 454 915 q 476 963 476 935 l 476 964 l 658 964 l 658 958 q 590 819 658 874 m 268 -14 q 85 37 150 -14 q 21 178 21 88 q 247 363 21 340 l 532 390 l 532 404 q 506 471 532 456 q 408 486 481 486 q 319 470 343 486 q 296 411 296 454 l 296 406 l 35 406 l 35 408 q 142 631 35 547 q 428 714 250 714 q 699 631 607 714 q 790 399 790 549 l 790 0 l 546 0 l 546 147 l 532 147 q 268 -14 489 -14 m 283 194 q 346 168 283 168 q 485 184 444 168 q 531 246 525 200 l 317 221 q 283 194 283 217 z "},"Ą":{"ha":1150,"x_min":-14,"x_max":1176,"o":"m 279 0 l -14 0 l 388 931 l 761 931 l 1164 0 l 1101 -78 q 1090 -99 1090 -92 q 1101 -107 1090 -107 l 1176 -107 l 1176 -260 l 1038 -260 q 894 -161 894 -260 q 906 -113 894 -137 q 929 -74 917 -89 q 964 -33 942 -58 l 996 0 l 864 0 l 793 172 l 351 172 l 279 0 m 504 538 l 450 407 l 697 407 l 643 538 l 582 694 l 564 694 l 504 538 z "},"ą":{"ha":826,"x_min":21,"x_max":803,"o":"m 268 -14 q 85 37 150 -14 q 21 178 21 88 q 247 363 21 340 l 532 390 l 532 404 q 506 471 532 456 q 408 486 481 486 q 319 470 343 486 q 296 411 296 454 l 296 406 l 35 406 l 35 408 q 142 631 35 547 q 428 714 250 714 q 699 631 607 714 q 790 399 790 549 l 790 0 l 728 -78 q 717 -99 717 -92 q 728 -107 717 -107 l 803 -107 l 803 -260 l 664 -260 q 521 -161 521 -260 q 532 -113 521 -137 q 556 -74 543 -89 q 590 -33 568 -58 l 622 0 l 546 0 l 546 147 l 532 147 q 268 -14 489 -14 m 283 194 q 346 168 283 168 q 485 184 444 168 q 531 246 525 200 l 317 221 q 283 194 283 217 z "},"Ć":{"ha":1069,"x_min":28,"x_max":1042,"o":"m 674 1014 l 393 1014 l 578 1200 l 954 1200 l 674 1014 m 542 -14 q 165 116 301 -14 q 28 465 28 246 q 165 815 28 685 q 542 944 301 944 q 909 839 776 944 q 1042 547 1042 733 l 1042 524 l 750 524 l 750 547 q 705 661 750 628 q 546 694 660 694 q 354 649 403 694 q 306 465 306 603 q 354 282 306 328 q 546 236 403 236 q 705 269 660 236 q 750 383 750 303 l 750 407 l 1042 407 l 1042 383 q 909 92 1042 197 q 542 -14 776 -14 z "},"ć":{"ha":854,"x_min":28,"x_max":850,"o":"m 569 778 l 286 778 l 472 958 l 850 958 l 569 778 m 435 -14 q 138 83 247 -14 q 28 350 28 181 q 138 617 28 519 q 435 714 247 714 q 720 629 614 714 q 826 404 826 544 l 826 382 l 567 382 l 567 393 q 533 463 567 444 q 429 481 499 481 q 320 454 353 481 q 288 350 288 428 q 320 247 288 272 q 429 221 353 221 q 533 238 499 221 q 567 307 567 256 l 567 319 l 826 319 l 826 296 q 720 71 826 156 q 435 -14 614 -14 z "},"Ĉ":{"ha":1069,"x_min":28,"x_max":1042,"o":"m 471 1014 l 192 1014 l 376 1194 l 692 1194 l 878 1014 l 597 1014 l 543 1072 l 526 1072 l 471 1014 m 542 -14 q 165 116 301 -14 q 28 465 28 246 q 165 815 28 685 q 542 944 301 944 q 909 839 776 944 q 1042 547 1042 733 l 1042 524 l 750 524 l 750 547 q 705 661 750 628 q 546 694 660 694 q 354 649 403 694 q 306 465 306 603 q 354 282 306 328 q 546 236 403 236 q 705 269 660 236 q 750 383 750 303 l 750 407 l 1042 407 l 1042 383 q 909 92 1042 197 q 542 -14 776 -14 z "},"ĉ":{"ha":854,"x_min":28,"x_max":826,"o":"m 364 778 l 85 778 l 269 958 l 585 958 l 771 778 l 490 778 l 436 836 l 419 836 l 364 778 m 435 -14 q 138 83 247 -14 q 28 350 28 181 q 138 617 28 519 q 435 714 247 714 q 720 629 614 714 q 826 404 826 544 l 826 382 l 567 382 l 567 393 q 533 463 567 444 q 429 481 499 481 q 320 454 353 481 q 288 350 288 428 q 320 247 288 272 q 429 221 353 221 q 533 238 499 221 q 567 307 567 256 l 567 319 l 826 319 l 826 296 q 720 71 826 156 q 435 -14 614 -14 z "},"Ċ":{"ha":1069,"x_min":28,"x_max":1042,"o":"m 665 1014 l 404 1014 l 404 1207 l 665 1207 l 665 1014 m 542 -14 q 165 116 301 -14 q 28 465 28 246 q 165 815 28 685 q 542 944 301 944 q 909 839 776 944 q 1042 547 1042 733 l 1042 524 l 750 524 l 750 547 q 705 661 750 628 q 546 694 660 694 q 354 649 403 694 q 306 465 306 603 q 354 282 306 328 q 546 236 403 236 q 705 269 660 236 q 750 383 750 303 l 750 407 l 1042 407 l 1042 383 q 909 92 1042 197 q 542 -14 776 -14 z "},"ċ":{"ha":854,"x_min":28,"x_max":826,"o":"m 558 778 l 297 778 l 297 971 l 558 971 l 558 778 m 435 -14 q 138 83 247 -14 q 28 350 28 181 q 138 617 28 519 q 435 714 247 714 q 720 629 614 714 q 826 404 826 544 l 826 382 l 567 382 l 567 393 q 533 463 567 444 q 429 481 499 481 q 320 454 353 481 q 288 350 288 428 q 320 247 288 272 q 429 221 353 221 q 533 238 499 221 q 567 307 567 256 l 567 319 l 826 319 l 826 296 q 720 71 826 156 q 435 -14 614 -14 z "},"Č":{"ha":1069,"x_min":28,"x_max":1042,"o":"m 599 1194 l 878 1194 l 693 1014 l 378 1014 l 192 1194 l 472 1194 l 526 1136 l 543 1136 l 599 1194 m 542 -14 q 165 116 301 -14 q 28 465 28 246 q 165 815 28 685 q 542 944 301 944 q 909 839 776 944 q 1042 547 1042 733 l 1042 524 l 750 524 l 750 547 q 705 661 750 628 q 546 694 660 694 q 354 649 403 694 q 306 465 306 603 q 354 282 306 328 q 546 236 403 236 q 705 269 660 236 q 750 383 750 303 l 750 407 l 1042 407 l 1042 383 q 909 92 1042 197 q 542 -14 776 -14 z "},"č":{"ha":854,"x_min":28,"x_max":826,"o":"m 585 778 l 269 778 l 85 958 l 375 958 l 419 900 l 436 900 l 481 958 l 771 958 l 585 778 m 435 -14 q 138 83 247 -14 q 28 350 28 181 q 138 617 28 519 q 435 714 247 714 q 720 629 614 714 q 826 404 826 544 l 826 382 l 567 382 l 567 393 q 533 463 567 444 q 429 481 499 481 q 320 454 353 481 q 288 350 288 428 q 320 247 288 272 q 429 221 353 221 q 533 238 499 221 q 567 307 567 256 l 567 319 l 826 319 l 826 296 q 720 71 826 156 q 435 -14 614 -14 z "},"Ď":{"ha":1057,"x_min":57,"x_max":1029,"o":"m 607 1194 l 886 1194 l 701 1014 l 386 1014 l 200 1194 l 481 1194 l 535 1136 l 551 1136 l 607 1194 m 528 0 l 57 0 l 57 931 l 528 931 q 894 808 760 931 q 1029 465 1029 685 q 894 123 1029 246 q 528 0 760 0 m 528 696 l 318 696 l 318 235 l 528 235 q 634 241 597 235 q 700 271 671 247 q 740 340 729 294 q 750 465 750 386 q 740 590 750 544 q 700 660 729 636 q 634 690 671 683 q 528 696 597 696 z "},"ď":{"ha":1142,"x_min":28,"x_max":1171,"o":"m 360 -14 q 114 83 200 -14 q 28 350 28 179 q 112 618 28 522 q 349 714 196 714 q 613 519 578 714 l 626 519 l 626 931 l 888 931 l 888 0 l 643 0 l 643 189 l 629 189 q 547 35 613 85 q 360 -14 482 -14 m 1004 578 l 933 578 l 933 704 l 997 704 q 1025 712 1017 704 q 1033 739 1033 719 l 1033 750 l 924 750 l 924 931 l 1171 931 l 1171 742 q 1004 578 1171 578 m 328 448 q 310 434 328 448 q 292 350 292 419 q 328 253 292 281 q 454 225 364 225 q 587 251 547 225 q 626 349 626 276 l 626 358 q 587 453 626 429 q 454 476 547 476 q 328 448 364 476 z "},"Đ":{"ha":1158,"x_min":14,"x_max":1131,"o":"m 629 0 l 158 0 l 158 349 l 14 349 l 14 582 l 158 582 l 158 931 l 629 931 q 996 808 861 931 q 1131 465 1131 685 q 996 123 1131 246 q 629 0 861 0 m 672 349 l 419 349 l 419 235 l 629 235 q 735 241 699 235 q 801 271 772 247 q 841 340 831 294 q 851 465 851 386 q 841 590 851 544 q 801 660 831 636 q 735 690 772 683 q 629 696 699 696 l 419 696 l 419 582 l 672 582 l 672 349 z "},"đ":{"ha":993,"x_min":28,"x_max":999,"o":"m 360 -14 q 114 75 200 -14 q 28 322 28 164 q 112 569 28 481 q 349 658 196 658 q 529 606 463 658 q 613 464 596 554 l 626 464 l 626 658 l 489 658 l 489 853 l 626 853 l 626 931 l 888 931 l 888 853 l 999 853 l 999 658 l 888 658 l 888 0 l 643 0 l 643 189 l 629 189 q 360 -14 593 -14 m 328 399 q 310 388 328 399 q 292 322 292 376 q 328 247 292 268 q 454 225 364 225 q 587 244 547 225 q 626 321 626 264 l 626 331 q 587 403 626 385 q 454 421 547 421 q 328 399 364 421 z "},"Ē":{"ha":900,"x_min":42,"x_max":868,"o":"m 700 1015 l 207 1015 l 207 1201 l 700 1201 l 700 1015 m 868 0 l 42 0 l 42 931 l 868 931 l 868 696 l 303 696 l 303 585 l 847 585 l 847 351 l 303 351 l 303 235 l 868 235 l 868 0 z "},"ē":{"ha":850,"x_min":28,"x_max":822,"o":"m 671 775 l 178 775 l 178 961 l 671 961 l 671 775 m 432 -14 q 135 74 243 -14 q 28 350 28 161 q 138 616 28 518 q 426 714 249 714 q 717 624 611 714 q 822 368 822 535 q 818 301 822 339 l 269 301 q 305 216 272 239 q 422 193 338 193 q 527 207 499 193 q 556 253 556 221 l 556 268 l 817 268 l 817 251 q 712 60 817 133 q 432 -14 607 -14 m 421 514 q 315 496 349 514 q 274 433 282 478 l 569 433 q 528 496 563 478 q 421 514 494 514 z "},"Ĕ":{"ha":900,"x_min":42,"x_max":868,"o":"m 631 1055 q 597 1027 631 1055 q 454 1000 563 1000 q 278 1055 346 1000 q 210 1194 210 1110 l 210 1213 l 392 1213 l 392 1199 q 403 1165 392 1175 q 454 1156 415 1156 q 505 1165 493 1156 q 517 1199 517 1175 l 517 1213 l 699 1213 l 699 1194 q 631 1055 699 1110 m 868 0 l 42 0 l 42 931 l 868 931 l 868 696 l 303 696 l 303 585 l 847 585 l 847 351 l 303 351 l 303 235 l 868 235 l 868 0 z "},"ĕ":{"ha":850,"x_min":28,"x_max":822,"o":"m 601 819 q 567 791 601 819 q 425 764 533 764 q 249 819 317 764 q 181 958 181 874 l 181 964 l 363 964 l 363 963 q 374 925 363 935 q 425 915 386 915 q 476 925 465 915 q 488 963 488 935 l 488 964 l 669 964 l 669 958 q 601 819 669 874 m 432 -14 q 135 74 243 -14 q 28 350 28 161 q 138 616 28 518 q 426 714 249 714 q 717 624 611 714 q 822 368 822 535 q 818 301 822 339 l 269 301 q 305 216 272 239 q 422 193 338 193 q 527 207 499 193 q 556 253 556 221 l 556 268 l 817 268 l 817 251 q 712 60 817 133 q 432 -14 607 -14 m 421 514 q 315 496 349 514 q 274 433 282 478 l 569 433 q 528 496 563 478 q 421 514 494 514 z "},"Ė":{"ha":900,"x_min":42,"x_max":868,"o":"m 585 1014 l 324 1014 l 324 1207 l 585 1207 l 585 1014 m 868 0 l 42 0 l 42 931 l 868 931 l 868 696 l 303 696 l 303 585 l 847 585 l 847 351 l 303 351 l 303 235 l 868 235 l 868 0 z "},"ė":{"ha":850,"x_min":28,"x_max":822,"o":"m 556 778 l 294 778 l 294 971 l 556 971 l 556 778 m 432 -14 q 135 74 243 -14 q 28 350 28 161 q 138 616 28 518 q 426 714 249 714 q 717 624 611 714 q 822 368 822 535 q 818 301 822 339 l 269 301 q 305 216 272 239 q 422 193 338 193 q 527 207 499 193 q 556 253 556 221 l 556 268 l 817 268 l 817 251 q 712 60 817 133 q 432 -14 607 -14 m 421 514 q 315 496 349 514 q 274 433 282 478 l 569 433 q 528 496 563 478 q 421 514 494 514 z "},"Ę":{"ha":900,"x_min":42,"x_max":881,"o":"m 847 351 l 303 351 l 303 235 l 868 235 l 868 0 l 806 -78 q 794 -99 794 -92 q 806 -107 794 -107 l 881 -107 l 881 -260 l 742 -260 q 599 -161 599 -260 q 610 -113 599 -137 q 633 -74 621 -89 q 668 -33 646 -58 l 700 0 l 42 0 l 42 931 l 868 931 l 868 696 l 303 696 l 303 585 l 847 585 l 847 351 z "},"ę":{"ha":850,"x_min":28,"x_max":822,"o":"m 579 -260 l 440 -260 q 297 -161 297 -260 q 308 -113 297 -137 q 332 -74 319 -89 q 367 -33 344 -58 l 386 -12 q 123 85 218 -3 q 28 350 28 174 q 138 616 28 518 q 426 714 249 714 q 717 624 611 714 q 822 368 822 535 q 818 301 822 339 l 269 301 q 305 216 272 239 q 422 193 338 193 q 527 207 499 193 q 556 253 556 221 l 556 268 l 817 268 l 817 251 q 751 92 817 158 q 567 0 685 25 l 504 -78 q 493 -99 493 -92 q 504 -107 493 -107 l 579 -107 l 579 -260 m 421 514 q 315 496 349 514 q 274 433 282 478 l 569 433 q 528 496 563 478 q 421 514 494 514 z "},"Ě":{"ha":900,"x_min":42,"x_max":868,"o":"m 518 1194 l 797 1194 l 613 1014 l 297 1014 l 111 1194 l 392 1194 l 446 1136 l 463 1136 l 518 1194 m 868 0 l 42 0 l 42 931 l 868 931 l 868 696 l 303 696 l 303 585 l 847 585 l 847 351 l 303 351 l 303 235 l 868 235 l 868 0 z "},"ě":{"ha":850,"x_min":28,"x_max":822,"o":"m 582 778 l 267 778 l 82 958 l 372 958 l 417 900 l 433 900 l 478 958 l 768 958 l 582 778 m 432 -14 q 135 74 243 -14 q 28 350 28 161 q 138 616 28 518 q 426 714 249 714 q 717 624 611 714 q 822 368 822 535 q 818 301 822 339 l 269 301 q 305 216 272 239 q 422 193 338 193 q 527 207 499 193 q 556 253 556 221 l 556 268 l 817 268 l 817 251 q 712 60 817 133 q 432 -14 607 -14 m 421 514 q 315 496 349 514 q 274 433 282 478 l 569 433 q 528 496 563 478 q 421 514 494 514 z "},"Ĝ":{"ha":1107,"x_min":28,"x_max":1071,"o":"m 501 1014 l 222 1014 l 407 1194 l 722 1194 l 908 1014 l 628 1014 l 574 1072 l 557 1072 l 501 1014 m 492 -14 q 151 116 274 -14 q 28 465 28 246 q 172 815 28 685 q 567 944 315 944 q 936 847 803 944 q 1069 575 1069 749 l 1069 565 l 778 565 l 778 575 q 730 667 778 640 q 560 694 682 694 q 357 649 408 694 q 306 465 306 603 q 354 282 306 328 q 546 236 403 236 q 747 251 696 236 q 807 317 797 265 l 521 317 l 521 508 l 1071 508 l 1071 0 l 828 0 l 828 199 l 814 199 q 492 -14 765 -14 z "},"ĝ":{"ha":915,"x_min":28,"x_max":874,"o":"m 388 778 l 108 778 l 293 958 l 608 958 l 794 778 l 514 778 l 460 836 l 443 836 l 388 778 m 353 78 q 113 162 197 78 q 28 397 28 246 q 116 630 28 546 q 360 714 204 714 q 615 536 586 714 l 629 536 l 629 700 l 874 700 l 874 118 q 456 -250 874 -250 q 171 -176 272 -250 q 69 36 69 -101 l 331 36 q 353 -22 331 -10 q 474 -35 376 -35 q 586 -10 560 -35 q 613 100 613 14 l 613 247 l 599 247 q 353 78 568 78 m 292 397 q 324 323 292 344 q 447 301 357 301 q 576 319 539 301 q 613 389 613 336 l 613 399 q 576 471 613 453 q 447 489 539 489 q 324 469 357 489 q 292 397 292 449 z "},"Ğ":{"ha":1107,"x_min":28,"x_max":1071,"o":"m 742 1055 q 708 1027 742 1055 q 565 1000 674 1000 q 389 1055 457 1000 q 321 1194 321 1110 l 321 1213 l 503 1213 l 503 1199 q 515 1165 503 1175 q 565 1156 526 1156 q 616 1165 604 1156 q 628 1199 628 1175 l 628 1213 l 810 1213 l 810 1194 q 742 1055 810 1110 m 492 -14 q 151 116 274 -14 q 28 465 28 246 q 172 815 28 685 q 567 944 315 944 q 936 847 803 944 q 1069 575 1069 749 l 1069 565 l 778 565 l 778 575 q 730 667 778 640 q 560 694 682 694 q 357 649 408 694 q 306 465 306 603 q 354 282 306 328 q 546 236 403 236 q 747 251 696 236 q 807 317 797 265 l 521 317 l 521 508 l 1071 508 l 1071 0 l 828 0 l 828 199 l 814 199 q 492 -14 765 -14 z "},"ğ":{"ha":915,"x_min":28,"x_max":874,"o":"m 628 819 q 594 791 628 819 q 451 764 560 764 q 275 819 343 764 q 207 958 207 874 l 207 964 l 389 964 l 389 963 q 401 925 389 935 q 451 915 413 915 q 503 925 492 915 q 514 963 514 935 l 514 964 l 696 964 l 696 958 q 628 819 696 874 m 353 78 q 113 162 197 78 q 28 397 28 246 q 116 630 28 546 q 360 714 204 714 q 615 536 586 714 l 629 536 l 629 700 l 874 700 l 874 118 q 456 -250 874 -250 q 171 -176 272 -250 q 69 36 69 -101 l 331 36 q 353 -22 331 -10 q 474 -35 376 -35 q 586 -10 560 -35 q 613 100 613 14 l 613 247 l 599 247 q 353 78 568 78 m 292 397 q 324 323 292 344 q 447 301 357 301 q 576 319 539 301 q 613 389 613 336 l 613 399 q 576 471 613 453 q 447 489 539 489 q 324 469 357 489 q 292 397 292 449 z "},"Ġ":{"ha":1107,"x_min":28,"x_max":1071,"o":"m 696 1014 l 435 1014 l 435 1207 l 696 1207 l 696 1014 m 492 -14 q 151 116 274 -14 q 28 465 28 246 q 172 815 28 685 q 567 944 315 944 q 936 847 803 944 q 1069 575 1069 749 l 1069 565 l 778 565 l 778 575 q 730 667 778 640 q 560 694 682 694 q 357 649 408 694 q 306 465 306 603 q 354 282 306 328 q 546 236 403 236 q 747 251 696 236 q 807 317 797 265 l 521 317 l 521 508 l 1071 508 l 1071 0 l 828 0 l 828 199 l 814 199 q 492 -14 765 -14 z "},"ġ":{"ha":915,"x_min":28,"x_max":874,"o":"m 582 778 l 321 778 l 321 971 l 582 971 l 582 778 m 353 78 q 113 162 197 78 q 28 397 28 246 q 116 630 28 546 q 360 714 204 714 q 615 536 586 714 l 629 536 l 629 700 l 874 700 l 874 118 q 456 -250 874 -250 q 171 -176 272 -250 q 69 36 69 -101 l 331 36 q 353 -22 331 -10 q 474 -35 376 -35 q 586 -10 560 -35 q 613 100 613 14 l 613 247 l 599 247 q 353 78 568 78 m 292 397 q 324 323 292 344 q 447 301 357 301 q 576 319 539 301 q 613 389 613 336 l 613 399 q 576 471 613 453 q 447 489 539 489 q 324 469 357 489 q 292 397 292 449 z "},"Ģ":{"ha":1107,"x_min":28,"x_max":1071,"o":"m 492 -14 q 151 116 274 -14 q 28 465 28 246 q 172 815 28 685 q 567 944 315 944 q 936 847 803 944 q 1069 575 1069 749 l 1069 565 l 778 565 l 778 575 q 730 667 778 640 q 560 694 682 694 q 357 649 408 694 q 306 465 306 603 q 354 282 306 328 q 546 236 403 236 q 747 251 696 236 q 807 317 797 265 l 521 317 l 521 508 l 1071 508 l 1071 0 l 828 0 l 828 199 l 814 199 q 492 -14 765 -14 m 529 -278 l 224 -278 l 379 -97 l 758 -97 l 529 -278 z "},"ģ":{"ha":915,"x_min":28,"x_max":874,"o":"m 479 958 l 744 958 l 614 778 l 274 778 l 479 958 m 353 78 q 113 162 197 78 q 28 397 28 246 q 116 630 28 546 q 360 714 204 714 q 615 536 586 714 l 629 536 l 629 700 l 874 700 l 874 118 q 456 -250 874 -250 q 171 -176 272 -250 q 69 36 69 -101 l 331 36 q 353 -22 331 -10 q 474 -35 376 -35 q 586 -10 560 -35 q 613 100 613 14 l 613 247 l 599 247 q 353 78 568 78 m 292 397 q 324 323 292 344 q 447 301 357 301 q 576 319 539 301 q 613 389 613 336 l 613 399 q 576 471 613 453 q 447 489 539 489 q 324 469 357 489 q 292 397 292 449 z "},"Ĥ":{"ha":1039,"x_min":42,"x_max":997,"o":"m 456 1014 l 176 1014 l 361 1194 l 676 1194 l 863 1014 l 582 1014 l 528 1072 l 511 1072 l 456 1014 m 303 0 l 42 0 l 42 931 l 303 931 l 303 585 l 736 585 l 736 931 l 997 931 l 997 0 l 736 0 l 736 350 l 303 350 l 303 0 z "},"ĥ":{"ha":907,"x_min":-174,"x_max":871,"o":"m 106 1014 l -174 1014 l 11 1194 l 326 1194 l 513 1014 l 232 1014 l 178 1072 l 161 1072 l 106 1014 m 303 0 l 42 0 l 42 931 l 303 931 l 303 488 l 317 488 q 403 650 335 586 q 596 714 471 714 q 801 638 731 714 q 871 440 871 563 l 871 0 l 610 0 l 610 353 q 576 453 610 426 q 453 481 542 481 q 333 456 364 481 q 303 361 303 431 l 303 0 z "},"Ħ":{"ha":1039,"x_min":-57,"x_max":1094,"o":"m 303 0 l 42 0 l 42 635 l -57 635 l -57 869 l 42 869 l 42 931 l 303 931 l 303 869 l 736 869 l 736 931 l 997 931 l 997 869 l 1094 869 l 1094 635 l 997 635 l 997 0 l 736 0 l 736 350 l 303 350 l 303 0 m 303 585 l 736 585 l 736 635 l 303 635 l 303 585 z "},"ħ":{"ha":981,"x_min":0,"x_max":944,"o":"m 376 0 l 115 0 l 115 658 l 0 658 l 0 853 l 115 853 l 115 931 l 376 931 l 376 853 l 510 853 l 510 658 l 376 658 l 376 432 l 390 432 q 476 594 408 531 q 669 658 544 658 q 874 583 804 658 q 944 385 944 507 l 944 0 l 683 0 l 683 297 q 649 398 683 371 q 526 425 615 425 q 407 400 438 425 q 376 306 376 375 l 376 0 z "},"Ĩ":{"ha":344,"x_min":-114,"x_max":458,"o":"m 60 989 l -114 989 l -114 1058 q 31 1215 -114 1215 q 153 1189 78 1215 l 200 1172 q 256 1158 239 1158 q 286 1193 286 1158 l 286 1203 l 458 1203 l 458 1135 q 426 1019 458 1063 q 325 976 393 976 q 199 1003 275 976 l 135 1024 q 83 1036 99 1036 q 60 1011 60 1036 l 60 989 m 303 0 l 42 0 l 42 931 l 303 931 l 303 0 z "},"ĩ":{"ha":388,"x_min":-92,"x_max":481,"o":"m 82 753 l -92 753 l -92 822 q 53 979 -92 979 q 175 953 100 979 l 222 936 q 278 922 261 922 q 308 957 308 922 l 308 967 l 481 967 l 481 899 q 448 783 481 826 q 347 740 415 740 q 221 767 297 740 l 157 788 q 106 800 121 800 q 82 775 82 800 l 82 753 m 324 0 l 64 0 l 64 694 l 324 694 l 324 0 z "},"Ī":{"ha":344,"x_min":-75,"x_max":418,"o":"m 418 1015 l -75 1015 l -75 1201 l 418 1201 l 418 1015 m 303 0 l 42 0 l 42 931 l 303 931 l 303 0 z "},"ī":{"ha":388,"x_min":-53,"x_max":440,"o":"m 440 775 l -53 775 l -53 961 l 440 961 l 440 775 m 324 0 l 64 0 l 64 694 l 324 694 l 324 0 z "},"Ĭ":{"ha":344,"x_min":-72,"x_max":417,"o":"m 349 1055 q 315 1027 349 1055 q 172 1000 281 1000 q -4 1055 64 1000 q -72 1194 -72 1110 l -72 1213 l 110 1213 l 110 1199 q 122 1165 110 1175 q 172 1156 133 1156 q 223 1165 211 1156 q 235 1199 235 1175 l 235 1213 l 417 1213 l 417 1194 q 349 1055 417 1110 m 303 0 l 42 0 l 42 931 l 303 931 l 303 0 z "},"ĭ":{"ha":388,"x_min":-50,"x_max":439,"o":"m 371 819 q 337 791 371 819 q 194 764 303 764 q 18 819 86 764 q -50 958 -50 874 l -50 964 l 132 964 l 132 963 q 144 925 132 935 q 194 915 156 915 q 246 925 235 915 q 257 963 257 935 l 257 964 l 439 964 l 439 958 q 371 819 439 874 m 324 0 l 64 0 l 64 694 l 324 694 l 324 0 z "},"Į":{"ha":344,"x_min":33,"x_max":315,"o":"m 315 -260 l 176 -260 q 33 -161 33 -260 q 44 -113 33 -137 q 68 -74 56 -89 q 103 -33 81 -58 l 135 0 l 42 0 l 42 931 l 303 931 l 303 0 l 240 -78 q 229 -99 229 -92 q 240 -107 229 -107 l 315 -107 l 315 -260 z "},"į":{"ha":344,"x_min":33,"x_max":315,"o":"m 303 764 l 42 764 l 42 931 l 303 931 l 303 764 m 315 -260 l 176 -260 q 33 -161 33 -260 q 44 -113 33 -137 q 68 -74 56 -89 q 103 -33 81 -58 l 135 0 l 42 0 l 42 700 l 303 700 l 303 0 l 240 -78 q 229 -99 229 -92 q 240 -107 229 -107 l 315 -107 l 315 -260 z "},"İ":{"ha":344,"x_min":42,"x_max":303,"o":"m 303 1014 l 42 1014 l 42 1207 l 303 1207 l 303 1014 m 303 0 l 42 0 l 42 931 l 303 931 l 303 0 z "},"ı":{"ha":388,"x_min":64,"x_max":324,"o":"m 324 0 l 64 0 l 64 694 l 324 694 l 324 0 z "},"Ĳ":{"ha":1267,"x_min":42,"x_max":1231,"o":"m 303 0 l 42 0 l 42 931 l 303 931 l 303 0 m 793 -14 q 460 88 561 -14 q 358 399 358 190 l 358 435 l 636 435 l 636 401 q 640 322 636 347 q 658 274 643 296 q 705 245 674 251 q 793 239 736 239 q 926 267 900 239 q 953 388 953 296 l 953 931 l 1231 931 l 1231 385 q 1128 85 1231 183 q 793 -14 1026 -14 z "},"ĳ":{"ha":689,"x_min":42,"x_max":647,"o":"m 303 764 l 42 764 l 42 931 l 303 931 l 303 764 m 647 764 l 386 764 l 386 931 l 647 931 l 647 764 m 303 0 l 42 0 l 42 700 l 303 700 l 303 0 m 333 -236 l 308 -236 l 308 -44 l 335 -44 q 386 6 386 -44 l 386 700 l 647 700 l 647 44 q 570 -175 647 -114 q 333 -236 493 -236 z "},"Ĵ":{"ha":922,"x_min":14,"x_max":1090,"o":"m 683 1014 l 404 1014 l 589 1194 l 904 1194 l 1090 1014 l 810 1014 l 756 1072 l 739 1072 l 683 1014 m 449 -14 q 115 88 217 -14 q 14 399 14 190 l 14 435 l 292 435 l 292 401 q 295 322 292 347 q 314 274 299 296 q 360 245 329 251 q 449 239 392 239 q 582 267 556 239 q 608 388 608 296 l 608 931 l 886 931 l 886 385 q 784 85 886 183 q 449 -14 682 -14 z "},"ĵ":{"ha":344,"x_min":-171,"x_max":515,"o":"m 108 778 l -171 778 l 14 958 l 329 958 l 515 778 l 235 778 l 181 836 l 164 836 l 108 778 m -11 -236 l -36 -236 l -36 -44 l -10 -44 q 42 6 42 -44 l 42 700 l 303 700 l 303 44 q 226 -175 303 -114 q -11 -236 149 -236 z "},"Ķ":{"ha":1015,"x_min":42,"x_max":1029,"o":"m 303 0 l 42 0 l 42 931 l 303 931 l 303 585 l 490 585 l 717 931 l 1029 931 l 707 474 l 1022 0 l 710 0 l 493 331 l 303 331 l 303 0 m 496 -278 l 190 -278 l 346 -97 l 725 -97 l 496 -278 z "},"ķ":{"ha":875,"x_min":42,"x_max":889,"o":"m 303 0 l 42 0 l 42 931 l 303 931 l 303 457 l 426 457 l 581 700 l 889 700 l 640 360 l 885 0 l 576 0 l 429 224 l 303 224 l 303 0 m 449 -278 l 183 -278 l 314 -97 l 654 -97 l 449 -278 z "},"Ĺ":{"ha":868,"x_min":42,"x_max":840,"o":"m 322 1014 l 42 1014 l 226 1200 l 603 1200 l 322 1014 m 840 0 l 42 0 l 42 931 l 303 931 l 303 235 l 840 235 l 840 0 z "},"ĺ":{"ha":344,"x_min":42,"x_max":603,"o":"m 322 1014 l 42 1014 l 226 1200 l 603 1200 l 322 1014 m 303 0 l 42 0 l 42 931 l 303 931 l 303 0 z "},"Ļ":{"ha":868,"x_min":42,"x_max":840,"o":"m 840 0 l 42 0 l 42 931 l 303 931 l 303 235 l 840 235 l 840 0 m 425 -278 l 119 -278 l 275 -97 l 654 -97 l 425 -278 z "},"ļ":{"ha":344,"x_min":-131,"x_max":340,"o":"m 303 0 l 42 0 l 42 931 l 303 931 l 303 0 m 135 -278 l -131 -278 l 0 -97 l 340 -97 l 135 -278 z "},"Ľ":{"ha":868,"x_min":42,"x_max":840,"o":"m 840 0 l 42 0 l 42 931 l 303 931 l 303 235 l 840 235 l 840 0 m 558 419 l 464 419 l 464 593 l 550 593 q 588 603 576 593 q 599 643 599 614 l 599 664 l 450 664 l 450 931 l 789 931 l 789 646 q 558 419 789 419 z "},"ľ":{"ha":643,"x_min":42,"x_max":636,"o":"m 303 0 l 42 0 l 42 931 l 303 931 l 303 0 m 469 578 l 399 578 l 399 704 l 463 704 q 490 712 482 704 q 499 739 499 719 l 499 750 l 389 750 l 389 931 l 636 931 l 636 742 q 469 578 636 578 z "},"Ŀ":{"ha":868,"x_min":42,"x_max":840,"o":"m 314 1014 l 53 1014 l 53 1207 l 314 1207 l 314 1014 m 840 0 l 42 0 l 42 931 l 303 931 l 303 235 l 840 235 l 840 0 z "},"ŀ":{"ha":606,"x_min":42,"x_max":606,"o":"m 303 0 l 42 0 l 42 931 l 303 931 l 303 0 m 606 369 l 344 369 l 344 563 l 606 563 l 606 369 z "},"Ł":{"ha":943,"x_min":14,"x_max":915,"o":"m 661 467 l 378 368 l 378 235 l 915 235 l 915 0 l 117 0 l 117 278 l 14 242 l 14 483 l 117 519 l 117 931 l 378 931 l 378 610 l 661 708 l 661 467 z "},"ł":{"ha":558,"x_min":-14,"x_max":572,"o":"m 410 0 l 149 0 l 149 375 l 57 335 l -14 481 l 149 553 l 149 931 l 410 931 l 410 668 l 501 708 l 572 563 l 410 490 l 410 0 z "},"Ń":{"ha":1022,"x_min":42,"x_max":981,"o":"m 650 1014 l 369 1014 l 554 1200 l 931 1200 l 650 1014 m 303 0 l 42 0 l 42 931 l 319 931 l 578 582 l 714 368 l 732 368 l 719 571 l 719 931 l 981 931 l 981 0 l 703 0 l 428 358 l 310 542 l 292 542 l 303 364 l 303 0 z "},"ń":{"ha":893,"x_min":42,"x_max":871,"o":"m 590 778 l 307 778 l 493 958 l 871 958 l 590 778 m 303 0 l 42 0 l 42 700 l 286 700 l 286 488 l 300 488 q 381 650 313 586 q 579 714 449 714 q 786 641 715 714 q 857 449 857 568 l 857 0 l 596 0 l 596 353 q 564 453 596 425 q 446 481 532 481 q 332 456 361 481 q 303 361 303 431 l 303 0 z "},"Ņ":{"ha":1022,"x_min":42,"x_max":981,"o":"m 303 0 l 42 0 l 42 931 l 319 931 l 578 582 l 714 368 l 732 368 l 719 571 l 719 931 l 981 931 l 981 0 l 703 0 l 428 358 l 310 542 l 292 542 l 303 364 l 303 0 m 496 -278 l 190 -278 l 346 -97 l 725 -97 l 496 -278 z "},"ņ":{"ha":893,"x_min":42,"x_max":857,"o":"m 303 0 l 42 0 l 42 700 l 286 700 l 286 488 l 300 488 q 381 650 313 586 q 579 714 449 714 q 786 641 715 714 q 857 449 857 568 l 857 0 l 596 0 l 596 353 q 564 453 596 425 q 446 481 532 481 q 332 456 361 481 q 303 361 303 431 l 303 0 m 425 -278 l 160 -278 l 290 -97 l 631 -97 l 425 -278 z "},"Ň":{"ha":1022,"x_min":42,"x_max":981,"o":"m 575 1194 l 854 1194 l 669 1014 l 354 1014 l 168 1194 l 449 1194 l 503 1136 l 519 1136 l 575 1194 m 303 0 l 42 0 l 42 931 l 319 931 l 578 582 l 714 368 l 732 368 l 719 571 l 719 931 l 981 931 l 981 0 l 703 0 l 428 358 l 310 542 l 292 542 l 303 364 l 303 0 z "},"ň":{"ha":893,"x_min":42,"x_max":857,"o":"m 606 778 l 290 778 l 106 958 l 396 958 l 440 900 l 457 900 l 501 958 l 792 958 l 606 778 m 303 0 l 42 0 l 42 700 l 286 700 l 286 488 l 300 488 q 381 650 313 586 q 579 714 449 714 q 786 641 715 714 q 857 449 857 568 l 857 0 l 596 0 l 596 353 q 564 453 596 425 q 446 481 532 481 q 332 456 361 481 q 303 361 303 431 l 303 0 z "},"Ŋ":{"ha":1022,"x_min":42,"x_max":981,"o":"m 621 -236 l 451 -236 l 451 -3 l 615 -3 q 692 14 678 -3 l 428 358 l 310 542 l 292 542 l 303 364 l 303 0 l 42 0 l 42 931 l 319 931 l 578 582 l 714 368 l 732 368 l 719 571 l 719 931 l 981 931 l 981 104 q 889 -160 981 -85 q 621 -236 797 -236 z "},"ŋ":{"ha":893,"x_min":42,"x_max":857,"o":"m 303 0 l 42 0 l 42 700 l 286 700 l 286 488 l 300 488 q 381 650 313 586 q 579 714 449 714 q 786 641 715 714 q 857 449 857 568 l 857 -4 q 776 -183 857 -131 q 543 -236 694 -236 l 518 -236 l 518 -44 l 544 -44 q 596 6 596 -44 l 596 353 q 564 453 596 425 q 446 481 532 481 q 332 456 361 481 q 303 361 303 431 l 303 0 z "},"Ō":{"ha":1092,"x_min":28,"x_max":1064,"o":"m 792 1015 l 299 1015 l 299 1201 l 792 1201 l 792 1015 m 543 -14 q 165 116 303 -14 q 28 465 28 246 q 165 815 28 685 q 543 944 303 944 q 926 815 789 944 q 1064 465 1064 686 q 926 115 1064 244 q 543 -14 789 -14 m 543 236 q 736 282 686 236 q 786 465 786 328 q 736 649 786 603 q 543 694 686 694 q 353 649 401 694 q 306 465 306 603 q 353 282 306 328 q 543 236 401 236 z "},"ō":{"ha":858,"x_min":21,"x_max":838,"o":"m 675 775 l 182 775 l 182 961 l 675 961 l 675 775 m 726 84 q 670 35 726 84 q 429 -14 614 -14 q 133 84 244 -14 q 21 350 21 182 q 133 617 21 519 q 429 714 244 714 q 726 617 614 714 q 838 350 838 519 q 726 84 838 182 m 310 245 q 326 231 310 245 q 429 217 342 217 q 548 245 517 217 q 579 350 579 274 q 548 456 579 426 q 429 485 517 485 q 310 456 342 485 q 279 350 279 426 q 310 245 279 274 z "},"Ŏ":{"ha":1092,"x_min":28,"x_max":1064,"o":"m 722 1055 q 688 1027 722 1055 q 546 1000 654 1000 q 369 1055 438 1000 q 301 1194 301 1110 l 301 1213 l 483 1213 l 483 1199 q 495 1165 483 1175 q 546 1156 507 1156 q 597 1165 585 1156 q 608 1199 608 1175 l 608 1213 l 790 1213 l 790 1194 q 722 1055 790 1110 m 543 -14 q 165 116 303 -14 q 28 465 28 246 q 165 815 28 685 q 543 944 303 944 q 926 815 789 944 q 1064 465 1064 686 q 926 115 1064 244 q 543 -14 789 -14 m 543 236 q 736 282 686 236 q 786 465 786 328 q 736 649 786 603 q 543 694 686 694 q 353 649 401 694 q 306 465 306 603 q 353 282 306 328 q 543 236 401 236 z "},"ŏ":{"ha":858,"x_min":21,"x_max":838,"o":"m 606 819 q 572 791 606 819 q 429 764 538 764 q 253 819 321 764 q 185 958 185 874 l 185 964 l 367 964 l 367 963 q 378 925 367 935 q 429 915 390 915 q 481 925 469 915 q 492 963 492 935 l 492 964 l 674 964 l 674 958 q 606 819 674 874 m 726 84 q 670 35 726 84 q 429 -14 614 -14 q 133 84 244 -14 q 21 350 21 182 q 133 617 21 519 q 429 714 244 714 q 726 617 614 714 q 838 350 838 519 q 726 84 838 182 m 310 245 q 326 231 310 245 q 429 217 342 217 q 548 245 517 217 q 579 350 579 274 q 548 456 579 426 q 429 485 517 485 q 310 456 342 485 q 279 350 279 426 q 310 245 279 274 z "},"Ő":{"ha":1092,"x_min":28,"x_max":1064,"o":"m 843 1014 l 579 1014 l 690 1200 l 1032 1200 l 843 1014 m 438 1014 l 174 1014 l 283 1200 l 626 1200 l 438 1014 m 543 -14 q 165 116 303 -14 q 28 465 28 246 q 165 815 28 685 q 543 944 303 944 q 926 815 789 944 q 1064 465 1064 686 q 926 115 1064 244 q 543 -14 789 -14 m 543 236 q 736 282 686 236 q 786 465 786 328 q 736 649 786 603 q 543 694 686 694 q 353 649 401 694 q 306 465 306 603 q 353 282 306 328 q 543 236 401 236 z "},"ő":{"ha":858,"x_min":21,"x_max":925,"o":"m 736 778 l 472 778 l 583 958 l 925 958 l 736 778 m 331 778 l 67 778 l 176 958 l 519 958 l 331 778 m 726 84 q 670 35 726 84 q 429 -14 614 -14 q 133 84 244 -14 q 21 350 21 182 q 133 617 21 519 q 429 714 244 714 q 726 617 614 714 q 838 350 838 519 q 726 84 838 182 m 310 245 q 326 231 310 245 q 429 217 342 217 q 548 245 517 217 q 579 350 579 274 q 548 456 579 426 q 429 485 517 485 q 310 456 342 485 q 279 350 279 426 q 310 245 279 274 z "},"Œ":{"ha":1585,"x_min":28,"x_max":1553,"o":"m 1553 0 l 517 0 q 161 124 294 0 q 28 465 28 247 q 161 807 28 683 q 517 931 294 931 l 1553 931 l 1553 696 l 988 696 l 988 585 l 1532 585 l 1532 351 l 988 351 l 988 235 l 1553 235 l 1553 0 m 517 235 l 726 235 l 726 696 l 517 696 q 419 690 453 696 q 356 660 385 683 q 318 590 328 636 q 308 465 308 544 q 318 340 308 386 q 356 271 328 294 q 419 241 385 247 q 517 235 453 235 z "},"œ":{"ha":1418,"x_min":21,"x_max":1390,"o":"m 429 -14 q 133 84 244 -14 q 21 350 21 182 q 133 617 21 519 q 429 714 244 714 q 717 625 604 714 q 994 714 825 714 q 1285 624 1179 714 q 1390 368 1390 535 q 1386 301 1390 339 l 838 301 q 873 216 840 239 q 990 193 906 193 q 1095 207 1067 193 q 1124 253 1124 221 l 1124 268 l 1385 268 l 1385 251 q 1280 60 1385 133 q 1000 -14 1175 -14 q 708 69 810 -14 q 429 -14 600 -14 m 989 514 q 883 496 917 514 q 842 433 850 478 l 1138 433 q 1097 496 1131 478 q 989 514 1063 514 m 310 245 q 326 231 310 245 q 429 217 342 217 q 548 245 517 217 q 579 350 579 274 q 548 456 579 426 q 429 485 517 485 q 310 456 342 485 q 279 350 279 426 q 310 245 279 274 z "},"Ŕ":{"ha":985,"x_min":42,"x_max":985,"o":"m 624 1014 l 343 1014 l 528 1200 l 904 1200 l 624 1014 m 303 0 l 42 0 l 42 931 l 585 931 q 864 857 768 931 q 960 646 960 783 q 899 469 960 533 q 708 389 839 406 l 708 375 q 808 326 775 358 q 869 233 840 294 l 985 0 l 683 0 l 572 228 q 516 299 547 281 q 410 317 485 317 l 303 317 l 303 0 m 303 696 l 303 511 l 582 511 q 664 529 642 511 q 686 604 686 547 q 663 677 686 658 q 582 696 640 696 l 303 696 z "},"ŕ":{"ha":760,"x_min":42,"x_max":815,"o":"m 535 778 l 251 778 l 438 958 l 815 958 l 535 778 m 303 0 l 42 0 l 42 700 l 286 700 l 286 517 l 300 517 q 373 661 315 608 q 531 714 431 714 q 694 649 642 714 q 746 472 746 583 l 746 333 l 485 333 l 485 415 q 465 477 485 460 q 394 494 446 494 q 322 478 342 494 q 303 418 303 461 l 303 0 z "},"Ŗ":{"ha":985,"x_min":42,"x_max":985,"o":"m 303 0 l 42 0 l 42 931 l 585 931 q 864 857 768 931 q 960 646 960 783 q 899 469 960 533 q 708 389 839 406 l 708 375 q 808 326 775 358 q 869 233 840 294 l 985 0 l 683 0 l 572 228 q 516 299 547 281 q 410 317 485 317 l 303 317 l 303 0 m 303 696 l 303 511 l 582 511 q 664 529 642 511 q 686 604 686 547 q 663 677 686 658 q 582 696 640 696 l 303 696 m 469 -278 l 164 -278 l 319 -97 l 699 -97 l 469 -278 z "},"ŗ":{"ha":760,"x_min":-132,"x_max":746,"o":"m 303 0 l 42 0 l 42 700 l 286 700 l 286 517 l 300 517 q 373 661 315 608 q 531 714 431 714 q 694 649 642 714 q 746 472 746 583 l 746 333 l 485 333 l 485 415 q 465 477 485 460 q 394 494 446 494 q 322 478 342 494 q 303 418 303 461 l 303 0 m 133 -278 l -132 -278 l -1 -97 l 339 -97 l 133 -278 z "},"Ř":{"ha":985,"x_min":42,"x_max":985,"o":"m 549 1194 l 828 1194 l 643 1014 l 328 1014 l 142 1194 l 422 1194 l 476 1136 l 493 1136 l 549 1194 m 303 0 l 42 0 l 42 931 l 585 931 q 864 857 768 931 q 960 646 960 783 q 899 469 960 533 q 708 389 839 406 l 708 375 q 808 326 775 358 q 869 233 840 294 l 985 0 l 683 0 l 572 228 q 516 299 547 281 q 410 317 485 317 l 303 317 l 303 0 m 303 696 l 303 511 l 582 511 q 664 529 642 511 q 686 604 686 547 q 663 677 686 658 q 582 696 640 696 l 303 696 z "},"ř":{"ha":760,"x_min":42,"x_max":746,"o":"m 550 778 l 235 778 l 50 958 l 340 958 l 385 900 l 401 900 l 446 958 l 736 958 l 550 778 m 303 0 l 42 0 l 42 700 l 286 700 l 286 517 l 300 517 q 373 661 315 608 q 531 714 431 714 q 694 649 642 714 q 746 472 746 583 l 746 333 l 485 333 l 485 415 q 465 477 485 460 q 394 494 446 494 q 322 478 342 494 q 303 418 303 461 l 303 0 z "},"Ś":{"ha":950,"x_min":21,"x_max":929,"o":"m 614 1014 l 333 1014 l 518 1200 l 894 1200 l 614 1014 m 493 -14 q 35 324 35 -14 l 35 332 l 296 332 l 296 303 q 331 239 296 254 q 493 224 365 224 q 638 234 607 224 q 668 278 668 244 q 649 315 668 303 q 574 335 629 328 l 282 374 q 21 640 21 410 q 130 856 21 767 q 472 944 239 944 q 799 856 689 944 q 910 607 910 767 l 910 599 l 649 599 l 649 619 q 610 690 649 672 q 444 708 571 708 q 315 695 349 708 q 282 650 282 682 q 297 617 282 628 q 349 600 311 606 l 640 557 q 929 288 929 515 q 822 72 929 157 q 493 -14 714 -14 z "},"ś":{"ha":801,"x_min":22,"x_max":824,"o":"m 543 778 l 260 778 l 446 958 l 824 958 l 543 778 m 418 -14 q 137 53 235 -14 q 39 243 39 121 l 39 249 l 300 249 l 300 235 q 323 199 300 207 q 419 192 346 192 q 503 199 483 192 q 524 225 524 206 q 510 248 524 242 q 447 260 496 254 l 244 282 q 22 483 22 306 q 110 649 22 585 q 383 714 199 714 q 756 454 756 714 l 756 449 l 494 449 l 494 457 q 472 498 494 486 q 375 510 450 510 q 297 501 315 510 q 279 472 279 493 q 297 449 279 457 q 372 435 314 440 l 511 419 q 720 353 660 403 q 781 211 781 303 q 685 49 781 111 q 418 -14 589 -14 z "},"Ŝ":{"ha":950,"x_min":21,"x_max":929,"o":"m 411 1014 l 132 1014 l 317 1194 l 632 1194 l 818 1014 l 538 1014 l 483 1072 l 467 1072 l 411 1014 m 493 -14 q 35 324 35 -14 l 35 332 l 296 332 l 296 303 q 331 239 296 254 q 493 224 365 224 q 638 234 607 224 q 668 278 668 244 q 649 315 668 303 q 574 335 629 328 l 282 374 q 21 640 21 410 q 130 856 21 767 q 472 944 239 944 q 799 856 689 944 q 910 607 910 767 l 910 599 l 649 599 l 649 619 q 610 690 649 672 q 444 708 571 708 q 315 695 349 708 q 282 650 282 682 q 297 617 282 628 q 349 600 311 606 l 640 557 q 929 288 929 515 q 822 72 929 157 q 493 -14 714 -14 z "},"ŝ":{"ha":801,"x_min":22,"x_max":781,"o":"m 338 778 l 58 778 l 243 958 l 558 958 l 744 778 l 464 778 l 410 836 l 393 836 l 338 778 m 418 -14 q 137 53 235 -14 q 39 243 39 121 l 39 249 l 300 249 l 300 235 q 323 199 300 207 q 419 192 346 192 q 503 199 483 192 q 524 225 524 206 q 510 248 524 242 q 447 260 496 254 l 244 282 q 22 483 22 306 q 110 649 22 585 q 383 714 199 714 q 756 454 756 714 l 756 449 l 494 449 l 494 457 q 472 498 494 486 q 375 510 450 510 q 297 501 315 510 q 279 472 279 493 q 297 449 279 457 q 372 435 314 440 l 511 419 q 720 353 660 403 q 781 211 781 303 q 685 49 781 111 q 418 -14 589 -14 z "},"Ş":{"ha":950,"x_min":21,"x_max":929,"o":"m 493 -14 l 489 -14 l 489 -50 l 508 -50 q 628 -87 586 -50 q 669 -190 669 -125 q 628 -296 669 -257 q 508 -335 586 -335 l 357 -335 l 357 -200 l 513 -200 q 524 -192 524 -200 q 513 -182 524 -182 l 357 -182 l 357 -4 q 35 324 35 42 l 35 332 l 296 332 l 296 303 q 331 239 296 254 q 493 224 365 224 q 638 234 607 224 q 668 278 668 244 q 649 315 668 303 q 574 335 629 328 l 282 374 q 21 640 21 410 q 130 856 21 767 q 472 944 239 944 q 799 856 689 944 q 910 607 910 767 l 910 599 l 649 599 l 649 619 q 610 690 649 672 q 444 708 571 708 q 315 695 349 708 q 282 650 282 682 q 297 617 282 628 q 349 600 311 606 l 640 557 q 929 288 929 515 q 822 72 929 157 q 493 -14 714 -14 z "},"ş":{"ha":801,"x_min":22,"x_max":781,"o":"m 475 -335 l 324 -335 l 324 -200 l 479 -200 q 490 -192 490 -200 q 479 -182 490 -182 l 324 -182 l 324 -8 q 112 74 185 8 q 39 243 39 139 l 39 249 l 300 249 l 300 235 q 323 199 300 207 q 419 192 346 192 q 503 199 483 192 q 524 225 524 206 q 510 248 524 242 q 447 260 496 254 l 244 282 q 22 483 22 306 q 110 649 22 585 q 383 714 199 714 q 756 454 756 714 l 756 449 l 494 449 l 494 457 q 472 498 494 486 q 375 510 450 510 q 297 501 315 510 q 279 472 279 493 q 297 449 279 457 q 372 435 314 440 l 511 419 q 720 353 660 403 q 781 211 781 303 q 695 56 781 117 q 456 -12 610 -6 l 456 -50 l 475 -50 q 594 -87 553 -50 q 636 -190 636 -125 q 594 -296 636 -257 q 475 -335 553 -335 z "},"Š":{"ha":950,"x_min":21,"x_max":929,"o":"m 539 1194 l 818 1194 l 633 1014 l 318 1014 l 132 1194 l 413 1194 l 467 1136 l 483 1136 l 539 1194 m 493 -14 q 35 324 35 -14 l 35 332 l 296 332 l 296 303 q 331 239 296 254 q 493 224 365 224 q 638 234 607 224 q 668 278 668 244 q 649 315 668 303 q 574 335 629 328 l 282 374 q 21 640 21 410 q 130 856 21 767 q 472 944 239 944 q 799 856 689 944 q 910 607 910 767 l 910 599 l 649 599 l 649 619 q 610 690 649 672 q 444 708 571 708 q 315 695 349 708 q 282 650 282 682 q 297 617 282 628 q 349 600 311 606 l 640 557 q 929 288 929 515 q 822 72 929 157 q 493 -14 714 -14 z "},"š":{"ha":801,"x_min":22,"x_max":781,"o":"m 558 778 l 243 778 l 58 958 l 349 958 l 393 900 l 410 900 l 454 958 l 744 958 l 558 778 m 418 -14 q 137 53 235 -14 q 39 243 39 121 l 39 249 l 300 249 l 300 235 q 323 199 300 207 q 419 192 346 192 q 503 199 483 192 q 524 225 524 206 q 510 248 524 242 q 447 260 496 254 l 244 282 q 22 483 22 306 q 110 649 22 585 q 383 714 199 714 q 756 454 756 714 l 756 449 l 494 449 l 494 457 q 472 498 494 486 q 375 510 450 510 q 297 501 315 510 q 279 472 279 493 q 297 449 279 457 q 372 435 314 440 l 511 419 q 720 353 660 403 q 781 211 781 303 q 685 49 781 111 q 418 -14 589 -14 z "},"Ţ":{"ha":960,"x_min":21,"x_max":939,"o":"m 611 0 l 528 0 l 528 -50 l 547 -50 q 667 -87 625 -50 q 708 -190 708 -125 q 667 -296 708 -257 q 547 -335 625 -335 l 396 -335 l 396 -200 l 551 -200 q 563 -192 563 -200 q 551 -182 563 -182 l 396 -182 l 396 0 l 350 0 l 350 696 l 21 696 l 21 931 l 939 931 l 939 696 l 611 696 l 611 0 z "},"ţ":{"ha":586,"x_min":0,"x_max":618,"o":"m 565 0 l 438 0 l 438 -50 l 457 -50 q 576 -87 535 -50 q 618 -190 618 -125 q 576 -296 618 -257 q 457 -335 535 -335 l 306 -335 l 306 -200 l 461 -200 q 472 -192 472 -200 q 461 -182 472 -182 l 306 -182 l 306 4 l 318 4 q 103 267 103 35 l 103 486 l 0 486 l 0 700 l 103 700 l 103 821 l 364 821 l 364 700 l 565 700 l 565 486 l 364 486 l 364 304 q 380 249 364 263 q 440 235 396 235 l 565 235 l 565 0 z "},"Ť":{"ha":960,"x_min":21,"x_max":939,"o":"m 544 1194 l 824 1194 l 639 1014 l 324 1014 l 138 1194 l 418 1194 l 472 1136 l 489 1136 l 544 1194 m 611 0 l 350 0 l 350 696 l 21 696 l 21 931 l 939 931 l 939 696 l 611 696 l 611 0 z "},"ť":{"ha":504,"x_min":0,"x_max":642,"o":"m 475 764 l 404 764 l 404 890 l 468 890 q 496 898 488 890 q 504 925 504 906 l 504 936 l 394 936 l 394 1117 l 642 1117 l 642 928 q 475 764 642 764 m 565 0 l 382 0 q 175 67 247 0 q 103 267 103 133 l 103 486 l 0 486 l 0 700 l 103 700 l 103 821 l 364 821 l 364 700 l 565 700 l 565 486 l 364 486 l 364 304 q 380 249 364 263 q 440 235 396 235 l 565 235 l 565 0 z "},"Ŧ":{"ha":960,"x_min":21,"x_max":939,"o":"m 611 0 l 350 0 l 350 318 l 151 318 l 151 551 l 350 551 l 350 696 l 21 696 l 21 931 l 939 931 l 939 696 l 611 696 l 611 551 l 810 551 l 810 318 l 611 318 l 611 0 z "},"ŧ":{"ha":586,"x_min":0,"x_max":565,"o":"m 565 0 l 382 0 q 175 67 247 0 q 103 267 103 133 l 103 282 l 0 282 l 0 467 l 103 467 l 103 514 l 0 514 l 0 700 l 103 700 l 103 821 l 364 821 l 364 700 l 565 700 l 565 514 l 364 514 l 364 467 l 565 467 l 565 282 l 365 282 q 385 244 368 254 q 440 235 401 235 l 565 235 l 565 0 z "},"Ũ":{"ha":1022,"x_min":36,"x_max":986,"o":"m 399 989 l 225 989 l 225 1058 q 369 1215 225 1215 q 492 1189 417 1215 l 539 1172 q 594 1158 578 1158 q 625 1193 625 1158 l 625 1203 l 797 1203 l 797 1135 q 765 1019 797 1063 q 664 976 732 976 q 538 1003 614 976 l 474 1024 q 422 1036 439 1036 q 399 1011 399 1036 l 399 989 m 867 92 q 808 39 867 92 q 511 -14 749 -14 q 155 92 274 -14 q 36 390 36 199 l 36 931 l 297 931 l 297 411 q 340 274 297 310 q 511 239 382 239 q 683 274 640 239 q 725 411 725 310 l 725 931 l 986 931 l 986 390 q 867 92 986 199 z "},"ũ":{"ha":907,"x_min":42,"x_max":871,"o":"m 343 753 l 169 753 l 169 822 q 314 979 169 979 q 436 953 361 979 l 483 936 q 539 922 522 922 q 569 957 569 922 l 569 967 l 742 967 l 742 899 q 709 783 742 826 q 608 740 676 740 q 482 767 558 740 l 418 788 q 367 800 382 800 q 343 775 343 800 l 343 753 m 329 -14 q 115 59 188 -14 q 42 251 42 132 l 42 700 l 303 700 l 303 347 q 337 247 303 274 q 460 219 371 219 q 579 244 549 219 q 610 339 610 269 l 610 700 l 871 700 l 871 0 l 626 0 l 626 213 l 613 213 q 531 50 600 114 q 329 -14 463 -14 z "},"Ū":{"ha":1022,"x_min":36,"x_max":986,"o":"m 757 1015 l 264 1015 l 264 1201 l 757 1201 l 757 1015 m 867 92 q 808 39 867 92 q 511 -14 749 -14 q 155 92 274 -14 q 36 390 36 199 l 36 931 l 297 931 l 297 411 q 340 274 297 310 q 511 239 382 239 q 683 274 640 239 q 725 411 725 310 l 725 931 l 986 931 l 986 390 q 867 92 986 199 z "},"ū":{"ha":907,"x_min":42,"x_max":871,"o":"m 701 775 l 208 775 l 208 961 l 701 961 l 701 775 m 329 -14 q 115 59 188 -14 q 42 251 42 132 l 42 700 l 303 700 l 303 347 q 337 247 303 274 q 460 219 371 219 q 579 244 549 219 q 610 339 610 269 l 610 700 l 871 700 l 871 0 l 626 0 l 626 213 l 613 213 q 531 50 600 114 q 329 -14 463 -14 z "},"Ŭ":{"ha":1022,"x_min":36,"x_max":986,"o":"m 688 1055 q 653 1027 688 1055 q 511 1000 619 1000 q 335 1055 403 1000 q 267 1194 267 1110 l 267 1213 l 449 1213 l 449 1199 q 460 1165 449 1175 q 511 1156 472 1156 q 562 1165 550 1156 q 574 1199 574 1175 l 574 1213 l 756 1213 l 756 1194 q 688 1055 756 1110 m 867 92 q 808 39 867 92 q 511 -14 749 -14 q 155 92 274 -14 q 36 390 36 199 l 36 931 l 297 931 l 297 411 q 340 274 297 310 q 511 239 382 239 q 683 274 640 239 q 725 411 725 310 l 725 931 l 986 931 l 986 390 q 867 92 986 199 z "},"ŭ":{"ha":907,"x_min":42,"x_max":871,"o":"m 632 819 q 598 791 632 819 q 456 764 564 764 q 279 819 347 764 q 211 958 211 874 l 211 964 l 393 964 l 393 963 q 405 925 393 935 q 456 915 417 915 q 507 925 496 915 q 518 963 518 935 l 518 964 l 700 964 l 700 958 q 632 819 700 874 m 329 -14 q 115 59 188 -14 q 42 251 42 132 l 42 700 l 303 700 l 303 347 q 337 247 303 274 q 460 219 371 219 q 579 244 549 219 q 610 339 610 269 l 610 700 l 871 700 l 871 0 l 626 0 l 626 213 l 613 213 q 531 50 600 114 q 329 -14 463 -14 z "},"Ů":{"ha":1022,"x_min":36,"x_max":986,"o":"m 640 978 q 615 958 640 978 q 511 938 590 938 q 382 978 432 938 q 332 1086 332 1019 q 382 1194 332 1153 q 511 1235 432 1235 q 640 1194 590 1235 q 690 1086 690 1153 q 640 978 690 1019 m 473 1061 q 478 1058 473 1061 q 511 1054 483 1054 q 549 1061 539 1054 q 560 1086 560 1068 q 549 1111 560 1104 q 511 1118 539 1118 q 473 1111 483 1118 q 463 1086 463 1104 q 473 1061 463 1068 m 867 92 q 808 39 867 92 q 511 -14 749 -14 q 155 92 274 -14 q 36 390 36 199 l 36 931 l 297 931 l 297 411 q 340 274 297 310 q 511 239 382 239 q 683 274 640 239 q 725 411 725 310 l 725 931 l 986 931 l 986 390 q 867 92 986 199 z "},"ů":{"ha":907,"x_min":42,"x_max":871,"o":"m 562 789 q 541 772 562 789 q 456 756 521 756 q 349 789 390 756 q 308 878 308 822 q 349 967 308 933 q 456 1000 390 1000 q 562 967 521 1000 q 603 878 603 933 q 562 789 603 822 m 423 860 q 427 857 423 860 q 456 854 431 854 q 488 860 481 854 q 496 878 496 865 q 488 896 496 890 q 456 901 481 901 q 423 896 431 901 q 415 878 415 890 q 423 860 415 865 m 329 -14 q 115 59 188 -14 q 42 251 42 132 l 42 700 l 303 700 l 303 347 q 337 247 303 274 q 460 219 371 219 q 579 244 549 219 q 610 339 610 269 l 610 700 l 871 700 l 871 0 l 626 0 l 626 213 l 613 213 q 531 50 600 114 q 329 -14 463 -14 z "},"Ű":{"ha":1022,"x_min":36,"x_max":997,"o":"m 808 1014 l 544 1014 l 656 1200 l 997 1200 l 808 1014 m 403 1014 l 139 1014 l 249 1200 l 592 1200 l 403 1014 m 867 92 q 808 39 867 92 q 511 -14 749 -14 q 155 92 274 -14 q 36 390 36 199 l 36 931 l 297 931 l 297 411 q 340 274 297 310 q 511 239 382 239 q 683 274 640 239 q 725 411 725 310 l 725 931 l 986 931 l 986 390 q 867 92 986 199 z "},"ű":{"ha":907,"x_min":42,"x_max":951,"o":"m 763 778 l 499 778 l 610 958 l 951 958 l 763 778 m 357 778 l 93 778 l 203 958 l 546 958 l 357 778 m 329 -14 q 115 59 188 -14 q 42 251 42 132 l 42 700 l 303 700 l 303 347 q 337 247 303 274 q 460 219 371 219 q 579 244 549 219 q 610 339 610 269 l 610 700 l 871 700 l 871 0 l 626 0 l 626 213 l 613 213 q 531 50 600 114 q 329 -14 463 -14 z "},"Ų":{"ha":1022,"x_min":36,"x_max":986,"o":"m 665 -260 l 526 -260 q 383 -161 383 -260 q 394 -113 383 -137 q 418 -74 406 -89 q 453 -33 431 -58 l 472 -12 q 145 101 254 -4 q 36 390 36 207 l 36 931 l 297 931 l 297 411 q 340 274 297 310 q 511 239 382 239 q 683 274 640 239 q 725 411 725 310 l 725 931 l 986 931 l 986 390 q 902 128 986 231 q 650 -3 818 26 l 590 -78 q 579 -99 579 -92 q 590 -107 579 -107 l 665 -107 l 665 -260 z "},"ų":{"ha":907,"x_min":42,"x_max":883,"o":"m 329 -14 q 115 59 188 -14 q 42 251 42 132 l 42 700 l 303 700 l 303 347 q 337 247 303 274 q 460 219 371 219 q 579 244 549 219 q 610 339 610 269 l 610 700 l 871 700 l 871 0 l 808 -78 q 797 -99 797 -92 q 808 -107 797 -107 l 883 -107 l 883 -260 l 744 -260 q 601 -161 601 -260 q 613 -113 601 -137 q 636 -74 624 -89 q 671 -33 649 -58 l 703 0 l 626 0 l 626 213 l 613 213 q 531 50 600 114 q 329 -14 463 -14 z "},"Ŵ":{"ha":1560,"x_min":13,"x_max":1547,"o":"m 717 1014 l 438 1014 l 622 1194 l 938 1194 l 1124 1014 l 843 1014 l 789 1072 l 772 1072 l 717 1014 m 594 0 l 207 0 l 13 931 l 304 931 l 382 457 l 407 247 l 425 247 l 463 457 l 588 931 l 981 931 l 1094 457 l 1128 247 l 1146 247 l 1174 457 l 1261 931 l 1547 931 l 1335 0 l 947 0 l 850 399 l 789 690 l 771 690 l 706 399 l 594 0 z "},"ŵ":{"ha":1304,"x_min":-7,"x_max":1311,"o":"m 588 778 l 308 778 l 493 958 l 808 958 l 994 778 l 714 778 l 660 836 l 643 836 l 588 778 m 496 0 l 169 0 l -7 700 l 264 700 l 314 447 l 340 197 l 358 197 l 417 475 l 486 700 l 822 700 l 892 475 l 950 197 l 968 197 l 996 447 l 1044 700 l 1311 700 l 1126 0 l 800 0 l 710 281 l 658 490 l 640 490 l 588 281 l 496 0 z "},"Ŷ":{"ha":1064,"x_min":-21,"x_max":1085,"o":"m 468 1014 l 189 1014 l 374 1194 l 689 1194 l 875 1014 l 594 1014 l 540 1072 l 524 1072 l 468 1014 m 658 0 l 397 0 l 397 296 l -21 931 l 303 931 l 443 710 l 522 579 l 540 579 l 619 710 l 760 931 l 1085 931 l 658 294 l 658 0 z "},"ŷ":{"ha":900,"x_min":-14,"x_max":914,"o":"m 386 778 l 107 778 l 292 958 l 607 958 l 793 778 l 513 778 l 458 836 l 442 836 l 386 778 m 196 -236 l 69 -236 l 69 0 l 272 0 q 321 8 304 0 l -14 700 l 283 700 l 404 425 l 454 264 l 472 264 l 518 428 l 622 700 l 914 700 l 582 -28 q 441 -192 528 -149 q 196 -236 354 -236 z "},"Ÿ":{"ha":1064,"x_min":-21,"x_max":1085,"o":"m 819 1014 l 572 1014 l 572 1207 l 819 1207 l 819 1014 m 492 1014 l 244 1014 l 244 1207 l 492 1207 l 492 1014 m 658 0 l 397 0 l 397 296 l -21 931 l 303 931 l 443 710 l 522 579 l 540 579 l 619 710 l 760 931 l 1085 931 l 658 294 l 658 0 z "},"Ź":{"ha":968,"x_min":35,"x_max":933,"o":"m 624 1014 l 343 1014 l 528 1200 l 904 1200 l 624 1014 m 933 0 l 35 0 l 35 235 l 531 678 l 531 696 l 43 696 l 43 931 l 925 931 l 925 696 l 407 253 l 407 235 l 933 235 l 933 0 z "},"ź":{"ha":803,"x_min":21,"x_max":824,"o":"m 543 778 l 260 778 l 446 958 l 824 958 l 543 778 m 782 0 l 21 0 l 21 222 l 274 392 l 419 465 l 419 483 l 274 472 l 42 472 l 42 700 l 761 700 l 761 478 l 486 301 l 350 232 l 350 214 l 486 228 l 782 228 l 782 0 z "},"Ż":{"ha":968,"x_min":35,"x_max":933,"o":"m 615 1014 l 354 1014 l 354 1207 l 615 1207 l 615 1014 m 933 0 l 35 0 l 35 235 l 531 678 l 531 696 l 43 696 l 43 931 l 925 931 l 925 696 l 407 253 l 407 235 l 933 235 l 933 0 z "},"ż":{"ha":803,"x_min":21,"x_max":782,"o":"m 532 778 l 271 778 l 271 971 l 532 971 l 532 778 m 782 0 l 21 0 l 21 222 l 274 392 l 419 465 l 419 483 l 274 472 l 42 472 l 42 700 l 761 700 l 761 478 l 486 301 l 350 232 l 350 214 l 486 228 l 782 228 l 782 0 z "},"Ž":{"ha":968,"x_min":35,"x_max":933,"o":"m 549 1194 l 828 1194 l 643 1014 l 328 1014 l 142 1194 l 422 1194 l 476 1136 l 493 1136 l 549 1194 m 933 0 l 35 0 l 35 235 l 531 678 l 531 696 l 43 696 l 43 931 l 925 931 l 925 696 l 407 253 l 407 235 l 933 235 l 933 0 z "},"ž":{"ha":803,"x_min":21,"x_max":782,"o":"m 558 778 l 243 778 l 58 958 l 349 958 l 393 900 l 410 900 l 454 958 l 744 958 l 558 778 m 782 0 l 21 0 l 21 222 l 274 392 l 419 465 l 419 483 l 274 472 l 42 472 l 42 700 l 761 700 l 761 478 l 486 301 l 350 232 l 350 214 l 486 228 l 782 228 l 782 0 z "},"ƒ":{"ha":797,"x_min":-14,"x_max":811,"o":"m 64 -236 l -14 -236 l 26 -1 l 76 -1 q 188 15 164 -1 q 225 100 213 31 l 268 349 l 125 349 l 167 582 l 308 582 l 310 586 q 451 849 342 768 q 771 931 561 931 l 811 931 l 771 696 l 722 696 q 610 680 635 696 q 572 594 585 664 l 569 582 l 750 582 l 708 349 l 529 349 l 488 108 q 358 -160 453 -85 q 64 -236 263 -236 z "},"Ǽ":{"ha":1689,"x_min":-11,"x_max":1663,"o":"m 1382 1014 l 1101 1014 l 1286 1200 l 1663 1200 l 1382 1014 m 313 0 l -11 0 l 663 931 l 1657 931 l 1657 696 l 1092 696 l 1092 585 l 1636 585 l 1636 351 l 1092 351 l 1092 235 l 1657 235 l 1657 0 l 831 0 l 831 172 l 435 172 l 313 0 m 817 711 l 601 407 l 831 407 l 831 711 l 817 711 z "},"ǽ":{"ha":1356,"x_min":21,"x_max":1343,"o":"m 824 778 l 540 778 l 726 958 l 1104 958 l 824 778 m 476 28 q 438 7 476 28 q 276 -14 399 -14 q 88 37 154 -14 q 21 178 21 88 q 247 367 21 344 l 549 396 l 549 404 q 523 471 549 456 q 424 486 497 486 q 323 470 350 486 q 296 411 296 454 l 296 399 l 35 399 l 35 408 q 142 631 35 547 q 428 714 250 714 q 689 640 596 714 q 947 714 794 714 q 1238 624 1132 714 q 1343 368 1343 535 q 1339 301 1343 339 l 790 301 q 826 216 793 239 q 943 193 858 193 q 1048 207 1019 193 q 1076 253 1076 221 l 1076 268 l 1338 268 l 1338 251 q 1233 60 1338 133 q 953 -14 1128 -14 q 596 147 688 -14 l 581 147 q 476 28 554 71 m 942 514 q 836 496 869 514 q 794 433 803 478 l 1090 433 q 1049 496 1083 478 q 942 514 1015 514 m 283 194 q 346 168 283 168 q 500 185 453 168 q 557 247 547 201 l 317 221 q 283 194 283 217 z "},"Ǿ":{"ha":1092,"x_min":-1,"x_max":1093,"o":"m 685 1014 l 404 1014 l 589 1200 l 965 1200 l 685 1014 m 543 -14 q 228 68 356 -14 l 121 -25 l -1 107 l 100 194 q 28 465 28 310 q 165 815 28 685 q 543 944 303 944 q 865 863 736 944 l 971 954 l 1093 822 l 993 735 q 1064 465 1064 621 q 926 115 1064 244 q 543 -14 789 -14 m 306 465 q 311 379 306 413 l 661 685 q 543 694 617 694 q 353 649 401 694 q 306 465 306 603 m 543 236 q 736 282 686 236 q 786 465 786 328 q 781 550 786 518 l 431 244 q 543 236 476 236 z "},"ǿ":{"ha":858,"x_min":6,"x_max":851,"o":"m 571 778 l 288 778 l 474 958 l 851 958 l 571 778 m 429 -14 q 185 47 283 -14 l 97 -29 l 6 72 l 83 140 q 21 350 21 226 q 133 617 21 519 q 429 714 244 714 q 674 654 571 714 l 760 729 l 851 628 l 775 561 q 838 350 838 472 q 726 84 838 182 q 429 -14 614 -14 m 279 350 q 281 313 279 324 l 476 482 q 429 485 449 485 q 310 456 342 485 q 279 350 279 426 m 429 217 q 548 245 517 217 q 579 350 579 274 q 578 389 579 378 l 382 219 q 429 217 410 217 z "},"Ș":{"ha":950,"x_min":21,"x_max":929,"o":"m 493 -14 q 35 324 35 -14 l 35 332 l 296 332 l 296 303 q 331 239 296 254 q 493 224 365 224 q 638 234 607 224 q 668 278 668 244 q 649 315 668 303 q 574 335 629 328 l 282 374 q 21 640 21 410 q 130 856 21 767 q 472 944 239 944 q 799 856 689 944 q 910 607 910 767 l 910 599 l 649 599 l 649 619 q 610 690 649 672 q 444 708 571 708 q 315 695 349 708 q 282 650 282 682 q 297 617 282 628 q 349 600 311 606 l 640 557 q 929 288 929 515 q 822 72 929 157 q 493 -14 714 -14 m 479 -278 l 174 -278 l 329 -97 l 708 -97 l 479 -278 z "},"ș":{"ha":801,"x_min":22,"x_max":781,"o":"m 418 -14 q 137 53 235 -14 q 39 243 39 121 l 39 249 l 300 249 l 300 235 q 323 199 300 207 q 419 192 346 192 q 503 199 483 192 q 524 225 524 206 q 510 248 524 242 q 447 260 496 254 l 244 282 q 22 483 22 306 q 110 649 22 585 q 383 714 199 714 q 756 454 756 714 l 756 449 l 494 449 l 494 457 q 472 498 494 486 q 375 510 450 510 q 297 501 315 510 q 279 472 279 493 q 297 449 279 457 q 372 435 314 440 l 511 419 q 720 353 660 403 q 781 211 781 303 q 685 49 781 111 q 418 -14 589 -14 m 378 -278 l 113 -278 l 243 -97 l 583 -97 l 378 -278 z "},"Ț":{"ha":960,"x_min":21,"x_max":939,"o":"m 611 0 l 350 0 l 350 696 l 21 696 l 21 931 l 939 931 l 939 696 l 611 696 l 611 0 m 518 -278 l 213 -278 l 368 -97 l 747 -97 l 518 -278 z "},"ț":{"ha":586,"x_min":0,"x_max":565,"o":"m 565 0 l 382 0 q 175 67 247 0 q 103 267 103 133 l 103 486 l 0 486 l 0 700 l 103 700 l 103 821 l 364 821 l 364 700 l 565 700 l 565 486 l 364 486 l 364 304 q 380 249 364 263 q 440 235 396 235 l 565 235 l 565 0 m 360 -278 l 94 -278 l 225 -97 l 565 -97 l 360 -278 z "},"ȷ":{"ha":344,"x_min":-36,"x_max":303,"o":"m -11 -236 l -36 -236 l -36 -44 l -10 -44 q 42 6 42 -44 l 42 700 l 303 700 l 303 44 q 226 -175 303 -114 q -11 -236 149 -236 z "},"̀":{"ha":628,"x_min":-117,"x_max":446,"o":"m 446 778 l 164 778 l -117 958 l 261 958 l 446 778 z "},"́":{"ha":628,"x_min":178,"x_max":742,"o":"m 461 778 l 178 778 l 364 958 l 742 958 l 461 778 z "},"̂":{"ha":742,"x_min":28,"x_max":714,"o":"m 307 778 l 28 778 l 213 958 l 528 958 l 714 778 l 433 778 l 379 836 l 363 836 l 307 778 z "},"̃":{"ha":701,"x_min":71,"x_max":643,"o":"m 244 753 l 71 753 l 71 822 q 215 979 71 979 q 338 953 263 979 l 385 936 q 440 922 424 922 q 471 957 471 922 l 471 967 l 643 967 l 643 899 q 610 783 643 826 q 510 740 578 740 q 383 767 460 740 l 319 788 q 268 800 283 800 q 244 775 244 800 l 244 753 z "},"̄":{"ha":660,"x_min":83,"x_max":576,"o":"m 576 775 l 83 775 l 83 961 l 576 961 l 576 775 z "},"̆":{"ha":575,"x_min":43,"x_max":532,"o":"m 464 819 q 430 791 464 819 q 288 764 396 764 q 111 819 179 764 q 43 958 43 874 l 43 964 l 225 964 l 225 963 q 237 925 225 935 q 288 915 249 915 q 339 925 328 915 q 350 963 350 935 l 350 964 l 532 964 l 532 958 q 464 819 532 874 z "},"̇":{"ha":336,"x_min":38,"x_max":299,"o":"m 299 778 l 38 778 l 38 971 l 299 971 l 299 778 z "},"̈":{"ha":625,"x_min":25,"x_max":600,"o":"m 600 778 l 353 778 l 353 971 l 600 971 l 600 778 m 272 778 l 25 778 l 25 971 l 272 971 l 272 778 z "},"̊":{"ha":372,"x_min":39,"x_max":333,"o":"m 292 789 q 272 772 292 789 q 186 756 251 756 q 80 789 121 756 q 39 878 39 822 q 80 967 39 933 q 186 1000 121 1000 q 292 967 251 1000 q 333 878 333 933 q 292 789 333 822 m 153 860 q 157 857 153 860 q 186 854 161 854 q 219 860 211 854 q 226 878 226 865 q 219 896 226 890 q 186 901 211 901 q 153 896 161 901 q 146 878 146 890 q 153 860 146 865 z "},"̋":{"ha":931,"x_min":93,"x_max":951,"o":"m 763 778 l 499 778 l 610 958 l 951 958 l 763 778 m 357 778 l 93 778 l 203 958 l 546 958 l 357 778 z "},"̌":{"ha":742,"x_min":28,"x_max":714,"o":"m 528 778 l 213 778 l 28 958 l 318 958 l 363 900 l 379 900 l 424 958 l 714 958 l 528 778 z "},"̒":{"ha":915,"x_min":275,"x_max":746,"o":"m 481 958 l 746 958 l 615 778 l 275 778 l 481 958 z "},"̦":{"ha":576,"x_min":60,"x_max":531,"o":"m 325 -278 l 60 -278 l 190 -97 l 531 -97 l 325 -278 z "},"̧":{"ha":461,"x_min":175,"x_max":488,"o":"m 326 -335 l 175 -335 l 175 -200 l 331 -200 q 342 -192 342 -200 q 331 -182 342 -182 l 175 -182 l 175 4 l 307 4 l 307 -50 l 326 -50 q 446 -87 404 -50 q 488 -190 488 -125 q 446 -296 488 -257 q 326 -335 404 -335 z "},"̨":{"ha":363,"x_min":50,"x_max":332,"o":"m 332 -260 l 193 -260 q 50 -161 50 -260 q 61 -113 50 -137 q 85 -74 72 -89 q 119 -33 97 -58 l 151 0 l 319 0 l 257 -78 q 246 -99 246 -92 q 257 -107 246 -107 l 332 -107 l 332 -260 z "},"̵":{"ha":993,"x_min":242,"x_max":751,"o":"m 751 658 l 242 658 l 242 853 l 751 853 l 751 658 z "},"̷":{"ha":586,"x_min":0,"x_max":586,"o":"m 586 563 l 71 335 l 0 481 l 515 708 l 586 563 z "},"̸":{"ha":846,"x_min":0,"x_max":846,"o":"m 846 628 l 92 -29 l 0 72 l 754 729 l 846 628 z "},"Ẁ":{"ha":1560,"x_min":13,"x_max":1547,"o":"m 922 1014 l 642 1014 l 361 1200 l 738 1200 l 922 1014 m 594 0 l 207 0 l 13 931 l 304 931 l 382 457 l 407 247 l 425 247 l 463 457 l 588 931 l 981 931 l 1094 457 l 1128 247 l 1146 247 l 1174 457 l 1261 931 l 1547 931 l 1335 0 l 947 0 l 850 399 l 789 690 l 771 690 l 706 399 l 594 0 z "},"ẁ":{"ha":1304,"x_min":-7,"x_max":1311,"o":"m 789 778 l 507 778 l 226 958 l 604 958 l 789 778 m 496 0 l 169 0 l -7 700 l 264 700 l 314 447 l 340 197 l 358 197 l 417 475 l 486 700 l 822 700 l 892 475 l 950 197 l 968 197 l 996 447 l 1044 700 l 1311 700 l 1126 0 l 800 0 l 710 281 l 658 490 l 640 490 l 588 281 l 496 0 z "},"Ẃ":{"ha":1560,"x_min":13,"x_max":1547,"o":"m 919 1014 l 639 1014 l 824 1200 l 1200 1200 l 919 1014 m 594 0 l 207 0 l 13 931 l 304 931 l 382 457 l 407 247 l 425 247 l 463 457 l 588 931 l 981 931 l 1094 457 l 1128 247 l 1146 247 l 1174 457 l 1261 931 l 1547 931 l 1335 0 l 947 0 l 850 399 l 789 690 l 771 690 l 706 399 l 594 0 z "},"ẃ":{"ha":1304,"x_min":-7,"x_max":1311,"o":"m 793 778 l 510 778 l 696 958 l 1074 958 l 793 778 m 496 0 l 169 0 l -7 700 l 264 700 l 314 447 l 340 197 l 358 197 l 417 475 l 486 700 l 822 700 l 892 475 l 950 197 l 968 197 l 996 447 l 1044 700 l 1311 700 l 1126 0 l 800 0 l 710 281 l 658 490 l 640 490 l 588 281 l 496 0 z "},"Ẅ":{"ha":1560,"x_min":13,"x_max":1547,"o":"m 1068 1014 l 821 1014 l 821 1207 l 1068 1207 l 1068 1014 m 740 1014 l 493 1014 l 493 1207 l 740 1207 l 740 1014 m 594 0 l 207 0 l 13 931 l 304 931 l 382 457 l 407 247 l 425 247 l 463 457 l 588 931 l 981 931 l 1094 457 l 1128 247 l 1146 247 l 1174 457 l 1261 931 l 1547 931 l 1335 0 l 947 0 l 850 399 l 789 690 l 771 690 l 706 399 l 594 0 z "},"ẅ":{"ha":1304,"x_min":-7,"x_max":1311,"o":"m 939 778 l 692 778 l 692 971 l 939 971 l 939 778 m 611 778 l 364 778 l 364 971 l 611 971 l 611 778 m 496 0 l 169 0 l -7 700 l 264 700 l 314 447 l 340 197 l 358 197 l 417 475 l 486 700 l 822 700 l 892 475 l 950 197 l 968 197 l 996 447 l 1044 700 l 1311 700 l 1126 0 l 800 0 l 710 281 l 658 490 l 640 490 l 588 281 l 496 0 z "},"Ẽ":{"ha":900,"x_min":42,"x_max":868,"o":"m 342 989 l 168 989 l 168 1058 q 313 1215 168 1215 q 435 1189 360 1215 l 482 1172 q 538 1158 521 1158 q 568 1193 568 1158 l 568 1203 l 740 1203 l 740 1135 q 708 1019 740 1063 q 607 976 675 976 q 481 1003 557 976 l 417 1024 q 365 1036 381 1036 q 342 1011 342 1036 l 342 989 m 868 0 l 42 0 l 42 931 l 868 931 l 868 696 l 303 696 l 303 585 l 847 585 l 847 351 l 303 351 l 303 235 l 868 235 l 868 0 z "},"ẽ":{"ha":850,"x_min":28,"x_max":822,"o":"m 313 753 l 139 753 l 139 822 q 283 979 139 979 q 406 953 331 979 l 453 936 q 508 922 492 922 q 539 957 539 922 l 539 967 l 711 967 l 711 899 q 678 783 711 826 q 578 740 646 740 q 451 767 528 740 l 388 788 q 336 800 351 800 q 313 775 313 800 l 313 753 m 432 -14 q 135 74 243 -14 q 28 350 28 161 q 138 616 28 518 q 426 714 249 714 q 717 624 611 714 q 822 368 822 535 q 818 301 822 339 l 269 301 q 305 216 272 239 q 422 193 338 193 q 527 207 499 193 q 556 253 556 221 l 556 268 l 817 268 l 817 251 q 712 60 817 133 q 432 -14 607 -14 m 421 514 q 315 496 349 514 q 274 433 282 478 l 569 433 q 528 496 563 478 q 421 514 494 514 z "},"Ỳ":{"ha":1064,"x_min":-21,"x_max":1085,"o":"m 674 1014 l 393 1014 l 113 1200 l 489 1200 l 674 1014 m 658 0 l 397 0 l 397 296 l -21 931 l 303 931 l 443 710 l 522 579 l 540 579 l 619 710 l 760 931 l 1085 931 l 658 294 l 658 0 z "},"ỳ":{"ha":900,"x_min":-14,"x_max":914,"o":"m 588 778 l 306 778 l 25 958 l 403 958 l 588 778 m 196 -236 l 69 -236 l 69 0 l 272 0 q 321 8 304 0 l -14 700 l 283 700 l 404 425 l 454 264 l 472 264 l 518 428 l 622 700 l 914 700 l 582 -28 q 441 -192 528 -149 q 196 -236 354 -236 z "},"Ỹ":{"ha":1064,"x_min":-21,"x_max":1085,"o":"m 419 989 l 246 989 l 246 1058 q 390 1215 246 1215 q 513 1189 438 1215 l 560 1172 q 615 1158 599 1158 q 646 1193 646 1158 l 646 1203 l 818 1203 l 818 1135 q 785 1019 818 1063 q 685 976 753 976 q 558 1003 635 976 l 494 1024 q 443 1036 460 1036 q 419 1011 419 1036 l 419 989 m 658 0 l 397 0 l 397 296 l -21 931 l 303 931 l 443 710 l 522 579 l 540 579 l 619 710 l 760 931 l 1085 931 l 658 294 l 658 0 z "},"ỹ":{"ha":900,"x_min":-14,"x_max":914,"o":"m 338 753 l 164 753 l 164 822 q 308 979 164 979 q 431 953 356 979 l 478 936 q 533 922 517 922 q 564 957 564 922 l 564 967 l 736 967 l 736 899 q 703 783 736 826 q 603 740 671 740 q 476 767 553 740 l 413 788 q 361 800 378 800 q 338 775 338 800 l 338 753 m 196 -236 l 69 -236 l 69 0 l 272 0 q 321 8 304 0 l -14 700 l 283 700 l 404 425 l 454 264 l 472 264 l 518 428 l 622 700 l 914 700 l 582 -28 q 441 -192 528 -149 q 196 -236 354 -236 z "},"–":{"ha":869,"x_min":42,"x_max":828,"o":"m 828 301 l 42 301 l 42 524 l 828 524 l 828 301 z "},"—":{"ha":1539,"x_min":42,"x_max":1497,"o":"m 1497 301 l 42 301 l 42 524 l 1497 524 l 1497 301 z "},"‘":{"ha":422,"x_min":42,"x_max":381,"o":"m 272 931 l 368 931 l 368 769 l 281 769 q 243 759 254 769 q 232 719 232 749 l 232 700 l 381 700 l 381 433 l 42 433 l 42 718 q 101 877 42 824 q 272 931 161 931 z "},"’":{"ha":422,"x_min":42,"x_max":381,"o":"m 150 433 l 54 433 l 54 594 l 142 594 q 179 605 168 594 q 190 644 190 615 l 190 664 l 42 664 l 42 931 l 381 931 l 381 646 q 321 487 381 540 q 150 433 261 433 z "},"‚":{"ha":422,"x_min":42,"x_max":381,"o":"m 150 -231 l 54 -231 l 54 -69 l 142 -69 q 179 -59 168 -69 q 190 -19 190 -49 l 190 0 l 42 0 l 42 267 l 381 267 l 381 -18 q 321 -177 381 -124 q 150 -231 261 -231 z "},"“":{"ha":831,"x_min":42,"x_max":789,"o":"m 272 931 l 368 931 l 368 769 l 281 769 q 243 759 254 769 q 232 719 232 749 l 232 700 l 381 700 l 381 433 l 42 433 l 42 718 q 101 877 42 824 q 272 931 161 931 m 681 931 l 776 931 l 776 769 l 689 769 q 651 759 663 769 q 640 719 640 749 l 640 700 l 789 700 l 789 433 l 450 433 l 450 718 q 510 877 450 824 q 681 931 569 931 z "},"”":{"ha":831,"x_min":42,"x_max":789,"o":"m 558 433 l 463 433 l 463 594 l 550 594 q 588 605 576 594 q 599 644 599 615 l 599 664 l 450 664 l 450 931 l 789 931 l 789 646 q 729 487 789 540 q 558 433 669 433 m 150 433 l 54 433 l 54 594 l 142 594 q 179 605 168 594 q 190 644 190 615 l 190 664 l 42 664 l 42 931 l 381 931 l 381 646 q 321 487 381 540 q 150 433 261 433 z "},"„":{"ha":831,"x_min":42,"x_max":789,"o":"m 150 -231 l 54 -231 l 54 -69 l 142 -69 q 179 -59 168 -69 q 190 -19 190 -49 l 190 0 l 42 0 l 42 267 l 381 267 l 381 -18 q 321 -177 381 -124 q 150 -231 261 -231 m 558 -231 l 463 -231 l 463 -69 l 550 -69 q 588 -59 576 -69 q 599 -19 599 -49 l 599 0 l 450 0 l 450 267 l 789 267 l 789 -18 q 729 -177 789 -124 q 558 -231 669 -231 z "},"†":{"ha":778,"x_min":28,"x_max":750,"o":"m 518 0 l 258 0 l 258 508 l 28 508 l 28 722 l 258 722 l 258 931 l 518 931 l 518 722 l 750 722 l 750 508 l 518 508 l 518 0 z "},"‡":{"ha":778,"x_min":28,"x_max":750,"o":"m 518 0 l 258 0 l 258 208 l 28 208 l 28 424 l 258 424 l 258 508 l 28 508 l 28 722 l 258 722 l 258 931 l 518 931 l 518 722 l 750 722 l 750 508 l 518 508 l 518 424 l 750 424 l 750 208 l 518 208 l 518 0 z "},"•":{"ha":513,"x_min":28,"x_max":485,"o":"m 419 299 q 386 267 419 299 q 256 236 353 236 q 93 299 158 236 q 28 465 28 361 q 93 632 28 569 q 256 694 158 694 q 419 632 353 694 q 485 465 485 569 q 419 299 485 361 z "},"…":{"ha":1267,"x_min":42,"x_max":1225,"o":"m 381 0 l 42 0 l 42 267 l 381 267 l 381 0 m 803 0 l 464 0 l 464 267 l 803 267 l 803 0 m 1225 0 l 886 0 l 886 267 l 1225 267 l 1225 0 z "},"‰":{"ha":1685,"x_min":14,"x_max":1671,"o":"m 449 543 q 416 513 449 543 q 265 482 382 482 q 81 543 149 482 q 14 714 14 604 q 81 885 14 824 q 265 947 149 947 q 449 885 382 947 q 517 714 517 824 q 449 543 517 604 m 303 0 l 51 0 l 842 931 l 1093 931 l 303 0 m 210 661 q 217 655 210 661 q 265 649 224 649 q 321 661 307 649 q 335 714 335 674 q 320 768 335 754 q 265 782 306 782 q 210 768 225 782 q 196 714 196 754 q 210 661 196 674 m 1603 46 q 1570 15 1603 46 q 1419 -15 1536 -15 q 1235 46 1303 -15 q 1168 217 1168 107 q 1235 388 1168 326 q 1419 450 1303 450 q 1603 388 1536 450 q 1671 217 1671 326 q 1603 46 1671 107 m 1062 46 q 1028 15 1062 46 q 878 -15 994 -15 q 694 46 761 -15 q 626 217 626 107 q 694 388 626 326 q 878 450 761 450 q 1062 388 994 450 q 1129 217 1129 326 q 1062 46 1129 107 m 1364 164 q 1371 158 1364 164 q 1419 151 1378 151 q 1475 164 1461 151 q 1489 217 1489 176 q 1474 271 1489 257 q 1419 285 1460 285 q 1365 271 1379 285 q 1350 217 1350 257 q 1364 164 1350 176 m 822 164 q 829 158 822 164 q 878 151 836 151 q 933 164 919 151 q 947 217 947 176 q 933 271 947 257 q 878 285 918 285 q 823 271 838 285 q 808 217 808 257 q 822 164 808 176 z "},"‹":{"ha":361,"x_min":42,"x_max":319,"o":"m 42 569 l 319 750 l 319 483 l 215 433 l 215 414 l 319 364 l 319 97 l 42 278 l 42 569 z "},"›":{"ha":361,"x_min":42,"x_max":319,"o":"m 319 278 l 42 97 l 42 364 l 146 414 l 146 433 l 42 483 l 42 750 l 319 569 l 319 278 z "},"⁄":{"ha":394,"x_min":-322,"x_max":719,"o":"m -71 0 l -322 0 l 468 931 l 719 931 l -71 0 z "},"⁰":{"ha":586,"x_min":28,"x_max":558,"o":"m 488 516 q 452 484 488 516 q 293 451 417 451 q 99 516 169 451 q 28 697 28 581 q 99 879 28 814 q 293 944 169 944 q 488 879 417 944 q 558 697 558 814 q 488 516 558 581 m 234 638 q 242 629 234 638 q 293 621 250 621 q 352 638 336 621 q 368 697 368 654 q 351 758 368 740 q 293 775 335 775 q 235 758 251 775 q 218 697 218 740 q 234 638 218 654 z "},"⁴":{"ha":547,"x_min":14,"x_max":533,"o":"m 457 465 l 276 465 l 276 553 l 14 553 l 14 696 l 242 931 l 457 931 l 457 713 l 533 713 l 533 553 l 457 553 l 457 465 m 211 713 l 276 713 l 276 781 l 263 781 l 211 726 l 211 713 z "},"€":{"ha":936,"x_min":14,"x_max":894,"o":"m 746 283 l 439 283 q 504 244 463 254 q 622 235 546 235 l 894 235 l 894 0 l 622 0 q 322 74 444 0 q 150 283 199 147 l 14 283 l 14 442 l 121 442 l 121 465 l 121 486 l 14 486 l 14 644 l 150 644 q 321 856 197 782 q 622 931 444 931 l 894 931 l 894 696 l 622 696 q 502 685 544 696 q 436 644 460 675 l 746 644 l 746 486 l 401 486 l 401 465 l 401 442 l 746 442 l 746 283 z "},"₹":{"ha":844,"x_min":42,"x_max":817,"o":"m 804 0 l 447 0 l 253 183 q 107 243 188 243 l 42 243 l 42 458 l 282 458 q 351 467 329 458 q 379 501 372 476 l 42 501 l 42 694 l 383 694 l 383 738 l 42 738 l 42 931 l 817 931 l 817 738 l 644 738 l 644 694 l 817 694 l 817 501 l 638 501 q 400 333 606 335 l 400 315 q 470 291 438 308 q 523 258 503 274 q 582 206 543 242 l 804 0 z "},"™":{"ha":768,"x_min":28,"x_max":740,"o":"m 474 651 l 368 651 l 368 931 l 517 931 l 553 758 l 557 758 l 590 931 l 740 931 l 740 651 l 635 651 l 635 724 l 638 794 l 632 794 l 618 683 l 494 683 l 474 794 l 469 794 l 474 722 l 474 651 m 243 651 l 125 651 l 125 822 l 28 822 l 28 931 l 340 931 l 340 822 l 243 822 l 243 651 z "},"−":{"ha":742,"x_min":42,"x_max":700,"o":"m 700 358 l 42 358 l 42 572 l 700 572 l 700 358 z "},"≈":{"ha":807,"x_min":42,"x_max":765,"o":"m 260 210 l 42 210 l 42 269 q 135 444 42 404 l 135 464 l 42 464 l 42 546 q 217 733 42 733 q 372 704 271 733 l 475 675 q 518 668 503 668 q 543 677 538 668 q 549 706 549 686 l 549 711 l 765 711 l 765 651 q 744 535 765 578 q 671 471 724 493 l 671 457 l 765 457 l 765 397 q 600 196 765 196 q 436 221 542 196 l 333 246 q 294 251 311 251 q 260 215 260 251 l 260 210 m 550 403 q 588 450 588 403 l 588 461 q 557 456 574 456 q 442 478 514 456 l 322 514 q 271 522 292 522 q 222 475 222 522 l 222 465 q 269 471 243 471 q 336 460 297 471 l 460 424 q 550 403 535 403 z "},"≠":{"ha":742,"x_min":42,"x_max":701,"o":"m 700 197 l 342 197 l 246 0 l 82 82 l 138 197 l 42 197 l 42 411 l 243 411 l 296 519 l 42 519 l 42 733 l 400 733 l 496 931 l 660 847 l 604 733 l 701 733 l 701 519 l 500 519 l 447 411 l 700 411 l 700 197 z "},"≤":{"ha":743,"x_min":42,"x_max":701,"o":"m 701 -24 l 42 -24 l 42 192 l 469 192 l 469 210 l 42 308 l 42 622 l 701 794 l 701 554 l 276 474 l 276 457 l 701 376 l 701 -24 z "},"≥":{"ha":742,"x_min":42,"x_max":700,"o":"m 700 -24 l 42 -24 l 42 376 l 465 457 l 465 474 l 42 554 l 42 794 l 700 622 l 700 308 l 272 210 l 272 192 l 700 192 l 700 -24 z "},"ﬀ":{"ha":1125,"x_min":7,"x_max":1111,"o":"m 363 0 l 101 0 l 101 486 l 7 486 l 7 700 l 107 700 q 228 867 129 804 q 493 931 328 931 l 549 931 l 549 744 l 451 744 q 369 735 393 744 q 346 700 344 726 l 549 700 l 549 486 l 363 486 l 363 0 m 925 0 l 664 0 l 664 486 l 569 486 l 569 700 l 669 700 q 791 867 692 804 q 1056 931 890 931 l 1111 931 l 1111 744 l 1014 744 q 931 735 956 744 q 908 700 907 726 l 1111 700 l 1111 486 l 925 486 l 925 0 z "},"ﬁ":{"ha":907,"x_min":7,"x_max":865,"o":"m 363 0 l 101 0 l 101 486 l 7 486 l 7 700 l 107 700 q 228 867 129 804 q 493 931 328 931 l 549 931 l 549 744 l 451 744 q 369 735 393 744 q 346 700 344 726 l 549 700 l 549 486 l 363 486 l 363 0 m 865 764 l 604 764 l 604 931 l 865 931 l 865 764 m 865 0 l 604 0 l 604 700 l 865 700 l 865 0 z "},"ﬂ":{"ha":907,"x_min":7,"x_max":865,"o":"m 363 0 l 101 0 l 101 486 l 7 486 l 7 700 l 107 700 q 228 867 129 804 q 493 931 328 931 l 549 931 l 549 744 l 451 744 q 369 735 393 744 q 346 700 344 726 l 549 700 l 549 486 l 363 486 l 363 0 m 865 0 l 604 0 l 604 931 l 865 931 l 865 0 z "},"ﬃ":{"ha":1469,"x_min":7,"x_max":1428,"o":"m 363 0 l 101 0 l 101 486 l 7 486 l 7 700 l 107 700 q 228 867 129 804 q 493 931 328 931 l 549 931 l 549 744 l 451 744 q 369 735 393 744 q 346 700 344 726 l 549 700 l 549 486 l 363 486 l 363 0 m 925 0 l 664 0 l 664 486 l 569 486 l 569 700 l 669 700 q 791 867 692 804 q 1056 931 890 931 l 1111 931 l 1111 744 l 1014 744 q 931 735 956 744 q 908 700 907 726 l 1111 700 l 1111 486 l 925 486 l 925 0 m 1428 764 l 1167 764 l 1167 931 l 1428 931 l 1428 764 m 1428 0 l 1167 0 l 1167 700 l 1428 700 l 1428 0 z "},"ﬄ":{"ha":1469,"x_min":7,"x_max":1428,"o":"m 363 0 l 101 0 l 101 486 l 7 486 l 7 700 l 107 700 q 228 867 129 804 q 493 931 328 931 l 549 931 l 549 744 l 451 744 q 369 735 393 744 q 346 700 344 726 l 549 700 l 549 486 l 363 486 l 363 0 m 925 0 l 664 0 l 664 486 l 569 486 l 569 700 l 669 700 q 791 867 692 804 q 1056 931 890 931 l 1111 931 l 1111 744 l 1014 744 q 931 735 956 744 q 908 700 907 726 l 1111 700 l 1111 486 l 925 486 l 925 0 m 1428 0 l 1167 0 l 1167 931 l 1428 931 l 1428 0 z "}}}
